<svg width="90" height="90" viewBox="0 0 90 90" fill="none" xmlns="http://www.w3.org/2000/svg">
<circle cx="45" cy="45" r="45" fill="#8037FF" fill-opacity="0.15"/>
<g clip-path="url(#clip0)">
<path d="M78.6042 19.3271L65.7262 13.962C64.3136 13.3736 62.6934 13.3737 61.2809 13.9621L55.0978 16.5375C54.5452 16.7679 54.2837 17.4024 54.5139 17.9551C54.7442 18.5078 55.3787 18.7694 55.9315 18.539L62.1145 15.9634C62.9969 15.5958 64.0096 15.5956 64.8927 15.9633L77.77 21.3281C79.0225 21.8506 79.832 23.0255 79.832 24.321V70.6794C79.832 72.4821 78.2837 73.9487 76.3806 73.9487H74.6231C74.0243 73.9487 73.5392 74.4338 73.5392 75.0326C73.5392 75.6314 74.0243 76.1166 74.6231 76.1166H76.3806C79.4791 76.1166 82 73.6775 82 70.6794V24.321C82 22.1478 80.6671 20.1877 78.6042 19.3271V19.3271Z" fill="black"/>
<path d="M69.8984 73.9488H51.6846C52.4345 73.0963 52.8452 72.0148 52.8452 70.8703C52.8452 69.728 52.4317 68.6812 51.7474 67.8695C52.1789 67.6494 52.5784 67.3613 52.931 67.0088C53.8115 66.1282 54.2963 64.9573 54.2963 63.7116C54.2963 62.5241 53.8494 61.4396 53.1159 60.6155C53.4791 60.4098 53.8173 60.1548 54.1202 59.8516C55.0007 58.9713 55.4856 57.8004 55.4856 56.5544C55.4856 55.3704 55.0415 54.2886 54.3121 53.4652C54.6814 53.258 55.0254 52.9998 55.3338 52.6921C56.2137 51.8102 56.6982 50.6396 56.6982 49.3957C56.6982 46.8239 54.6066 44.7316 52.0355 44.7316H47.1749V24.3209C47.1749 23.0253 47.9844 21.8505 49.2364 21.3283L51.2079 20.5073C51.7606 20.2772 52.0221 19.6427 51.792 19.0899C51.5617 18.5372 50.9272 18.2753 50.3745 18.5059L48.4023 19.3271C46.3397 20.1875 45.0069 22.1478 45.0069 24.3209V44.7318H40.4778C41.9859 39.9657 41.8576 34.9917 40.0975 29.2187C39.8301 28.3444 39.2982 27.5956 38.559 27.0531C37.824 26.514 36.9531 26.2289 36.0401 26.2289C34.8639 26.2289 33.7702 26.6986 32.9603 27.5515C32.1507 28.4042 31.7385 29.5206 31.7995 30.6948C32.1385 37.2127 29.1319 39.4561 24.9707 42.5613C23.6007 43.5836 22.1034 44.7017 20.6317 46.0729V44.6521C20.6317 44.0533 20.1466 43.5682 19.5478 43.5682H9.08398C8.48519 43.5682 8 44.0533 8 44.6521V75.3954C8 75.9942 8.48519 76.4794 9.08398 76.4794H19.548C20.1468 76.4794 20.632 75.9942 20.632 75.3954V72.6684C22.6909 72.8642 24.1946 73.2745 25.6555 74.3942C26.6146 75.1293 27.7969 75.5341 28.9845 75.5341H48.1018C48.8828 75.9148 49.7487 76.1166 50.6265 76.1166H69.8983C70.497 76.1166 70.9822 75.6314 70.9822 75.0326C70.9822 74.4338 70.497 73.9488 69.8984 73.9488V73.9488ZM26.9744 72.6734C24.9304 71.1071 22.7459 70.672 20.632 70.4894V57.8321C20.632 57.2333 20.1468 56.7481 19.548 56.7481C18.9493 56.7481 18.4641 57.2333 18.4641 57.8321V74.3115H10.168V45.7363H18.4641V53.109C18.4641 53.7077 18.9493 54.1929 19.548 54.1929C20.1468 54.1929 20.632 53.7077 20.632 53.109V49.1524C22.4453 47.1514 24.387 45.7024 26.2676 44.299C30.4314 41.1921 34.3641 38.2572 33.965 30.5823C33.9351 30.0078 34.1367 29.4616 34.533 29.0444C34.9294 28.6268 35.4647 28.397 36.0405 28.397C36.489 28.397 36.9164 28.5368 37.2767 28.8012C37.6364 29.0652 37.895 29.4288 38.0245 29.8521C39.8171 35.7324 39.7891 40.6797 37.9362 45.4216C37.8058 45.7552 37.8487 46.1316 38.0506 46.4274C38.2526 46.7233 38.5876 46.9002 38.9457 46.9002H52.0358C53.4114 46.9002 54.5305 48.0199 54.5305 49.3962C54.5305 50.0618 54.2708 50.6886 53.8009 51.1597C53.3283 51.6311 52.7016 51.8908 52.0358 51.8908H47.5828C46.984 51.8908 46.4988 52.376 46.4988 52.9748C46.4988 53.5736 46.984 54.0588 47.5828 54.0588H50.8232C52.1987 54.0588 53.3178 55.1785 53.3178 56.555C53.3178 57.2217 53.0585 57.8483 52.5873 58.3193C52.1164 58.7903 51.4899 59.0496 50.8232 59.0496H47.5828C46.984 59.0496 46.4988 59.5348 46.4988 60.1336C46.4988 60.7324 46.984 61.2176 47.5828 61.2176H49.6335C51.0092 61.2176 52.1283 62.3367 52.1283 63.7122C52.1283 64.3788 51.8688 65.0055 51.398 65.4765C50.9259 65.9485 50.2992 66.2083 49.6335 66.2083H48.1824H46.3931C45.7943 66.2083 45.3092 66.6934 45.3092 67.2922C45.3092 67.891 45.7943 68.3762 46.3931 68.3762H48.1824C49.5581 68.3762 50.6772 69.4953 50.6772 70.8708C50.6772 71.5374 50.4175 72.1647 49.9477 72.6356C49.5075 73.0748 48.812 73.355 48.2916 73.3643C48.2556 73.3649 28.9845 73.3669 28.9845 73.3669C28.2711 73.3662 27.5571 73.1202 26.9744 72.6734V72.6734Z" fill="black"/>
<path d="M67.4157 24.8024C67.4157 22.5246 65.5625 20.6714 63.2847 20.6714C61.0069 20.6714 59.1537 22.5246 59.1537 24.8024C59.1537 27.0802 61.0069 28.9334 63.2847 28.9334C65.5625 28.9334 67.4157 27.0802 67.4157 24.8024ZM61.3217 24.8024C61.3217 23.72 62.2023 22.8394 63.2847 22.8394C64.3671 22.8394 65.2477 23.72 65.2477 24.8024C65.2477 25.8848 64.3671 26.7654 63.2847 26.7654C62.2023 26.7654 61.3217 25.8849 61.3217 24.8024Z" fill="black"/>
<path d="M63.9618 61.7897H62.0178C60.9937 61.7897 60.1607 60.9565 60.1607 59.9324C60.1607 59.3337 59.6755 58.8485 59.0767 58.8485C58.4779 58.8485 57.9927 59.3337 57.9927 59.9324C57.9927 62.1144 59.7381 63.8951 61.9057 63.9548V66.3537C61.9057 66.9525 62.3909 67.4377 62.9897 67.4377C63.5885 67.4377 64.0737 66.9525 64.0737 66.3537V63.9548C66.2415 63.8951 67.9869 62.1144 67.9869 59.9324V58.4318C67.9869 57.0395 67.0973 55.8152 65.7731 55.3848L60.8764 53.7942C60.4483 53.655 60.1607 53.2593 60.1607 52.8092V50.6605C60.1607 49.8288 60.8372 49.1521 61.6689 49.1521H64.3109C65.1425 49.1521 65.8191 49.8288 65.8191 50.6605C65.8191 51.2593 66.3043 51.7445 66.9031 51.7445C67.5018 51.7445 67.987 51.2593 67.987 50.6605C67.987 48.6334 66.3379 46.9842 64.3109 46.9842H64.0737V44.5881C64.0737 43.9893 63.5885 43.5042 62.9897 43.5042C62.3909 43.5042 61.9057 43.9893 61.9057 44.5881V46.9842H61.6687C59.6418 46.9842 57.9926 48.6333 57.9926 50.6605V52.8092C57.9926 54.2015 58.8821 55.4258 60.2063 55.8561L65.1029 57.4467C65.5312 57.5858 65.8188 57.9817 65.8188 58.4318V59.9324C65.8191 60.9565 64.9858 61.7897 63.9618 61.7897V61.7897Z" fill="black"/>
</g>
<defs>
<clipPath id="clip0">
<rect width="74" height="74" fill="white" transform="translate(8 8)"/>
</clipPath>
</defs>
</svg>
