<svg width="90" height="90" viewBox="0 0 90 90" fill="none" xmlns="http://www.w3.org/2000/svg">
<circle cx="45" cy="45" r="45" fill="#8037FF" fill-opacity="0.15"/>
<path d="M40.1735 25.843L39.3353 30.6574C39.3076 30.8168 39.325 30.9808 39.3856 31.1308C39.4462 31.2808 39.5476 31.4109 39.6783 31.5063C39.8089 31.6017 39.9637 31.6586 40.125 31.6707C40.2864 31.6827 40.4478 31.6494 40.5912 31.5745L44.9221 29.311L49.242 31.5954C49.385 31.671 49.5463 31.7051 49.7076 31.6939C49.869 31.6826 50.024 31.6265 50.1551 31.5317C50.2862 31.437 50.3882 31.3075 50.4496 31.1579C50.511 31.0082 50.5293 30.8444 50.5025 30.6849L49.688 25.8665L53.1955 22.464C53.3116 22.3513 53.3939 22.2084 53.4331 22.0514C53.4723 21.8944 53.4667 21.7296 53.4171 21.5756C53.3675 21.4216 53.2758 21.2845 53.1523 21.1799C53.0289 21.0753 52.8786 21.0073 52.7186 20.9837L47.8849 20.2688L45.7328 15.8814C45.6615 15.7362 45.551 15.6138 45.4138 15.528C45.2766 15.4423 45.1182 15.3966 44.9564 15.3962H44.9542C44.7927 15.3962 44.6345 15.4413 44.4973 15.5264C44.36 15.6115 44.2493 15.7332 44.1775 15.8778L42.0043 20.2545L37.1664 20.9455C37.0062 20.9684 36.8557 21.0356 36.7317 21.1396C36.6077 21.2436 36.5153 21.3802 36.465 21.534C36.4146 21.6878 36.4082 21.8526 36.4466 22.0098C36.485 22.167 36.5667 22.3103 36.6822 22.4235L40.1735 25.843ZM42.7008 21.9071C42.84 21.8872 42.9723 21.8338 43.0863 21.7514C43.2002 21.669 43.2924 21.5601 43.355 21.4342L44.9496 18.2228L46.5286 21.4414C46.5905 21.5676 46.6822 21.6769 46.7957 21.7598C46.9092 21.8427 47.0412 21.8968 47.1803 21.9173L50.7274 22.4414L48.1537 24.9391C48.0528 25.037 47.9772 25.1579 47.9334 25.2916C47.8897 25.4252 47.879 25.5675 47.9025 25.7061L48.5001 29.2415L45.3304 27.5649C45.2061 27.4992 45.0677 27.4647 44.9271 27.4644C44.7865 27.464 44.6479 27.4979 44.5233 27.563L41.3457 29.2237L41.9604 25.6912C41.9845 25.5527 41.9745 25.4104 41.9314 25.2766C41.8882 25.1428 41.8132 25.0215 41.7128 24.9232L39.1514 22.4141L42.7008 21.9071Z" fill="black"/>
<path d="M62.7041 29.0218L61.968 33.2515C61.9403 33.4109 61.9577 33.5749 62.0183 33.725C62.0789 33.875 62.1803 34.0051 62.311 34.1005C62.4416 34.1959 62.5964 34.2529 62.7577 34.2649C62.9191 34.277 63.0806 34.2437 63.224 34.1687L67.0289 32.1801L70.824 34.1871C70.967 34.2627 71.1283 34.2968 71.2897 34.2855C71.451 34.2743 71.606 34.2181 71.7371 34.1234C71.8683 34.0287 71.9703 33.8992 72.0316 33.7495C72.093 33.5999 72.1113 33.436 72.0845 33.2765L71.3691 29.0435L74.4505 26.0542C74.5666 25.9415 74.6489 25.7986 74.6881 25.6416C74.7272 25.4846 74.7217 25.3198 74.6721 25.1658C74.6224 25.0118 74.5307 24.8747 74.4073 24.7701C74.2838 24.6655 74.1336 24.5976 73.9735 24.5739L69.7266 23.9463L67.836 20.0914C67.7647 19.9461 67.6542 19.8237 67.517 19.7379C67.3797 19.6522 67.2213 19.6066 67.0594 19.6062H67.0574C66.8959 19.6062 66.7377 19.6513 66.6005 19.7364C66.4632 19.8215 66.3525 19.9432 66.2807 20.0878L64.3714 23.9323L60.1215 24.5393C59.9613 24.5622 59.8108 24.6295 59.6868 24.7334C59.5629 24.8374 59.4705 24.974 59.4201 25.1277C59.3697 25.2815 59.3633 25.4463 59.4017 25.6034C59.4401 25.7606 59.5216 25.9039 59.6372 26.0172L62.7041 29.0218ZM65.0678 25.5853C65.207 25.5654 65.3393 25.512 65.4532 25.4296C65.5672 25.3472 65.6594 25.2384 65.7219 25.1124L67.0525 22.4328L68.3702 25.1189C68.4321 25.2451 68.5238 25.3544 68.6373 25.4373C68.7508 25.5202 68.8828 25.5743 69.0219 25.5949L71.9816 26.0322L69.8341 28.1155C69.7333 28.2134 69.6577 28.3343 69.6139 28.4679C69.5701 28.6015 69.5595 28.7437 69.5829 28.8824L70.0816 31.8325L67.4367 30.4339C67.3124 30.3681 67.174 30.3335 67.0334 30.3332C66.8928 30.3328 66.7542 30.3667 66.6296 30.4319L63.978 31.8176L64.491 28.8692C64.515 28.7307 64.5051 28.5884 64.462 28.4546C64.4188 28.3208 64.3438 28.1995 64.2434 28.1012L62.1061 26.0086L65.0678 25.5853Z" fill="black"/>
<path d="M18.4952 29.0218L17.7592 33.2515C17.7315 33.411 17.7489 33.575 17.8095 33.725C17.8701 33.8751 17.9715 34.0052 18.1022 34.1006C18.2329 34.196 18.3876 34.253 18.549 34.265C18.7104 34.2771 18.8719 34.2437 19.0153 34.1687L22.8201 32.1801L26.6156 34.1871C26.7586 34.2627 26.92 34.2969 27.0813 34.2856C27.2427 34.2744 27.3977 34.2182 27.5289 34.1235C27.66 34.0288 27.762 33.8993 27.8234 33.7496C27.8848 33.5999 27.9031 33.4361 27.8762 33.2765L27.1607 29.0435L30.2421 26.0542C30.3582 25.9415 30.4405 25.7986 30.4797 25.6416C30.5188 25.4846 30.5133 25.3198 30.4637 25.1658C30.414 25.0118 30.3223 24.8747 30.1989 24.7701C30.0754 24.6655 29.9252 24.5976 29.7651 24.5739L25.5172 23.9458L23.6269 20.0914C23.5556 19.9461 23.4451 19.8237 23.3079 19.738C23.1707 19.6522 23.0123 19.6066 22.8505 19.6062H22.8483C22.6868 19.6062 22.5286 19.6513 22.3914 19.7364C22.2541 19.8215 22.1434 19.9432 22.0716 20.0878L20.1623 23.9323L15.9124 24.5393C15.7522 24.5622 15.6017 24.6295 15.4777 24.7335C15.3538 24.8375 15.2614 24.9741 15.2111 25.1278C15.1607 25.2815 15.1543 25.4463 15.1927 25.6035C15.2311 25.7606 15.3127 25.9039 15.4282 26.0172L18.4952 29.0218ZM20.859 25.5853C20.9983 25.5655 21.1307 25.5122 21.2447 25.4298C21.3588 25.3474 21.4511 25.2386 21.5137 25.1126L22.8444 22.4329L24.1619 25.1191C24.2239 25.2453 24.3156 25.3546 24.4291 25.4375C24.5427 25.5204 24.6747 25.5745 24.8138 25.595L27.7735 26.0323L25.626 28.1156C25.5251 28.2135 25.4495 28.3344 25.4057 28.468C25.3619 28.6016 25.3513 28.7439 25.3747 28.8825L25.8733 31.8327L23.2284 30.434C23.1042 30.3682 22.9657 30.3337 22.8251 30.3333C22.6845 30.333 22.5459 30.3668 22.4214 30.432L19.7692 31.8176L20.282 28.8692C20.3061 28.7307 20.2962 28.5885 20.2531 28.4547C20.2099 28.3209 20.135 28.1996 20.0346 28.1012L17.8972 26.0086L20.859 25.5853Z" fill="black"/>
<path d="M45 35.0483C43.1565 35.0504 41.3891 35.7837 40.0856 37.0873C38.782 38.3908 38.0488 40.1582 38.0468 42.0017V46.0592C38.0468 47.9033 38.7793 49.6719 40.0833 50.9759C41.3873 52.2798 43.1559 53.0124 45 53.0124C46.8441 53.0124 48.6127 52.2798 49.9167 50.9759C51.2207 49.6719 51.9532 47.9033 51.9532 46.0592V42.0017C51.9512 40.1582 51.2179 38.3908 49.9144 37.0873C48.6109 35.7837 46.8435 35.0504 45 35.0483V35.0483ZM50.2189 46.0592C50.2189 47.4433 49.669 48.7707 48.6903 49.7495C47.7116 50.7282 46.3841 51.278 45 51.278C43.6159 51.278 42.2884 50.7282 41.3097 49.7495C40.331 48.7707 39.7811 47.4433 39.7811 46.0592V42.0017C39.7811 40.6176 40.331 39.2902 41.3097 38.3114C42.2884 37.3327 43.6159 36.7829 45 36.7829C46.3841 36.7829 47.7116 37.3327 48.6903 38.3114C49.669 39.2902 50.2189 40.6176 50.2189 42.0017V46.0592Z" fill="black"/>
<path d="M66.5785 38.4868C64.8817 38.4887 63.2549 39.1636 62.0551 40.3634C60.8553 41.5633 60.1804 43.19 60.1785 44.8868V48.5752C60.1785 50.2726 60.8527 51.9005 62.053 53.1007C63.2532 54.3009 64.8811 54.9752 66.5785 54.9752C68.2758 54.9752 69.9037 54.3009 71.1039 53.1007C72.3042 51.9005 72.9784 50.2726 72.9784 48.5752V44.8868C72.9765 43.19 72.3016 41.5633 71.1018 40.3634C69.902 39.1636 68.2752 38.4887 66.5785 38.4868ZM71.2441 48.5751C71.2441 49.8125 70.7525 50.9992 69.8775 51.8742C69.0026 52.7492 67.8158 53.2407 66.5785 53.2407C65.3411 53.2407 64.1543 52.7492 63.2794 51.8742C62.4044 50.9992 61.9128 49.8125 61.9128 48.5751V44.8867C61.9128 43.6493 62.4044 42.4625 63.2794 41.5876C64.1543 40.7126 65.3411 40.221 66.5785 40.221C67.8158 40.221 69.0026 40.7126 69.8775 41.5876C70.7525 42.4625 71.2441 43.6493 71.2441 44.8867V48.5751Z" fill="black"/>
<path d="M73.9552 56.2709H71.6235C71.4146 56.2707 71.2144 56.1876 71.0666 56.0399C70.9189 55.8922 70.8358 55.692 70.8355 55.4831C70.8355 55.2789 70.7634 55.0813 70.6319 54.9251C70.5005 54.7688 70.3181 54.664 70.117 54.629C69.9158 54.594 69.7088 54.6311 69.5323 54.7338C69.3558 54.8364 69.2212 54.9981 69.1522 55.1903L68.2249 57.7739C68.1034 58.1124 67.8799 58.4047 67.5851 58.6107C67.2904 58.8167 66.9389 58.926 66.5794 58.9237C66.2198 58.9214 65.8698 58.8075 65.5777 58.5978C65.2856 58.388 65.0659 58.0928 64.9488 57.7528L64.0621 55.1801C64.0141 55.0411 63.9316 54.9166 63.8223 54.8182C63.713 54.7198 63.5805 54.6508 63.4372 54.6178C63.2939 54.5847 63.1445 54.5887 63.0031 54.6292C62.8618 54.6698 62.733 54.7456 62.6291 54.8496L62.6081 54.8704C62.4455 55.033 62.3542 55.2536 62.3542 55.4835C62.3539 55.6924 62.2708 55.8927 62.1231 56.0404C61.9753 56.1881 61.7751 56.2711 61.5662 56.2714H59.2009C58.8266 56.2714 58.4527 56.2999 58.0827 56.3566C56.6739 55.2259 54.9213 54.6102 53.1149 54.6114H50.55C50.297 54.6114 50.0544 54.5109 49.8755 54.332C49.6966 54.1531 49.5961 53.9105 49.5961 53.6575C49.596 53.4533 49.5239 53.2557 49.3925 53.0995C49.261 52.9432 49.0787 52.8384 48.8775 52.8034C48.6764 52.7684 48.4693 52.8055 48.2928 52.9082C48.1163 53.0109 47.9817 53.1725 47.9127 53.3647L46.8934 56.2069C46.7537 56.5961 46.4966 56.9323 46.1577 57.1691C45.8187 57.4059 45.4146 57.5317 45.0011 57.5291C44.5877 57.5264 44.1852 57.3955 43.8493 57.1543C43.5134 56.9132 43.2607 56.5737 43.126 56.1828L42.1506 53.3521C42.1026 53.213 42.02 53.0884 41.9106 52.99C41.8012 52.8916 41.6686 52.8226 41.5251 52.7897C41.3817 52.7567 41.2323 52.7607 41.0909 52.8014C40.9495 52.8421 40.8207 52.9181 40.7168 53.0223L40.6938 53.0453C40.5317 53.2078 40.4406 53.4281 40.4406 53.6577C40.4406 53.9106 40.3401 54.1533 40.1612 54.3322C39.9823 54.5111 39.7397 54.6116 39.4867 54.6116H36.8851C35.0784 54.6103 33.3253 55.2262 31.9165 56.3574C31.5467 56.3004 31.1732 56.2717 30.7991 56.2714H28.4674C28.2585 56.2711 28.0582 56.1881 27.9105 56.0404C27.7628 55.8927 27.6796 55.6924 27.6794 55.4835C27.6793 55.2793 27.6072 55.0817 27.4758 54.9255C27.3443 54.7692 27.162 54.6644 26.9608 54.6294C26.7596 54.5944 26.5526 54.6315 26.3761 54.7342C26.1996 54.8369 26.065 54.9985 25.996 55.1907L25.0691 57.7739C24.9476 58.1123 24.7241 58.4047 24.4293 58.6106C24.1345 58.8166 23.7831 58.926 23.4236 58.9236C23.064 58.9213 22.714 58.8074 22.4219 58.5977C22.1298 58.388 21.91 58.0928 21.7929 57.7528L20.9062 55.1801C20.8583 55.0411 20.7758 54.9165 20.6664 54.8181C20.5571 54.7197 20.4245 54.6507 20.2811 54.6177C20.1378 54.5846 19.9884 54.5886 19.847 54.6292C19.7056 54.6698 19.5769 54.7457 19.4729 54.8497L19.4521 54.8706C19.2896 55.0332 19.1983 55.2536 19.1983 55.4835C19.1981 55.6924 19.115 55.8927 18.9673 56.0404C18.8196 56.188 18.6193 56.2711 18.4104 56.2714H16.0449C14.1037 56.2736 12.2426 57.0457 10.8699 58.4183C9.4972 59.7909 8.72499 61.6519 8.72266 63.5932V73.7366C8.72266 73.9666 8.81402 74.1872 8.97665 74.3498C9.13928 74.5125 9.35985 74.6038 9.58984 74.6038H80.4102C80.6401 74.6038 80.8607 74.5125 81.0234 74.3498C81.186 74.1872 81.2773 73.9666 81.2773 73.7366V63.5932C81.2752 61.6519 80.503 59.7907 79.1304 58.418C77.7577 57.0453 75.8965 56.2731 73.9552 56.2709ZM28.9176 62.5788V72.8695H10.457V63.5932C10.4587 62.1117 11.048 60.6914 12.0955 59.6438C13.1431 58.5962 14.5634 58.007 16.0449 58.0053H18.4102C18.9384 58.006 19.4533 57.84 19.8816 57.5309L20.1529 58.3185C20.3871 58.998 20.8264 59.588 21.4103 60.0071C21.9941 60.4262 22.6936 60.6537 23.4123 60.6583C24.131 60.6629 24.8333 60.4442 25.4225 60.0326C26.0116 59.6209 26.4584 59.0365 26.7012 58.3601L26.9982 57.5327C27.4034 57.8245 27.8865 57.9888 28.3857 58.0046C28.4015 58.0046 28.4175 58.0057 28.4335 58.0057H30.3665C29.4225 59.3437 28.9163 60.9414 28.9176 62.5788V62.5788ZM59.3481 72.8695H30.6519V62.5788C30.6539 60.9263 31.3112 59.342 32.4797 58.1735C33.6483 57.005 35.2326 56.3477 36.8851 56.3458H39.4867C40.0899 56.3465 40.6756 56.1433 41.1488 55.7693L41.486 56.7482C41.7377 57.4786 42.21 58.113 42.8376 58.5636C43.4653 59.0141 44.2173 59.2588 44.9899 59.2637C45.7625 59.2686 46.5176 59.0336 47.1509 58.591C47.7842 58.1484 48.2646 57.5202 48.5256 56.793L48.8919 55.772C49.3413 56.1261 49.8923 56.3267 50.4641 56.3443C50.4803 56.3454 50.4967 56.3458 50.513 56.3458H53.1146C54.7672 56.3477 56.3515 57.005 57.5201 58.1736C58.6886 59.3421 59.3459 60.9265 59.3478 62.5791L59.3481 72.8695ZM79.543 72.8695H61.0824V62.5788C61.0837 60.9412 60.5774 59.3434 59.6332 58.0053H61.5662C62.0943 58.006 62.6092 57.84 63.0375 57.5309L63.3088 58.3185C63.543 58.998 63.9823 59.588 64.5661 60.0071C65.15 60.4262 65.8495 60.6537 66.5682 60.6583C67.2869 60.6629 67.9892 60.4442 68.5783 60.0326C69.1674 59.6209 69.6142 59.0365 69.8571 58.3601L70.1541 57.5327C70.5593 57.8245 71.0424 57.9888 71.5416 58.0046C71.5573 58.0046 71.5734 58.0057 71.5893 58.0057H73.9547C75.4361 58.0073 76.8565 58.5964 77.9042 59.6439C78.9518 60.6914 79.5412 62.1117 79.543 63.5932V72.8695Z" fill="black"/>
<path d="M17.022 44.8868V48.5752C17.022 49.4157 17.1875 50.2479 17.5091 51.0244C17.8308 51.8009 18.3022 52.5064 18.8965 53.1007C19.4908 53.695 20.1963 54.1664 20.9728 54.4881C21.7493 54.8097 22.5815 54.9752 23.422 54.9752C24.2624 54.9752 25.0946 54.8097 25.8711 54.4881C26.6476 54.1664 27.3531 53.695 27.9474 53.1007C28.5417 52.5064 29.0132 51.8009 29.3348 51.0244C29.6564 50.2479 29.8219 49.4157 29.8219 48.5752V44.8868C29.8219 43.1894 29.1477 41.5616 27.9474 40.3613C26.7472 39.1611 25.1193 38.4868 23.422 38.4868C21.7246 38.4868 20.0967 39.1611 18.8965 40.3613C17.6963 41.5616 17.022 43.1894 17.022 44.8868V44.8868ZM28.0876 44.8868V48.5752C28.0876 49.8126 27.596 50.9994 26.721 51.8743C25.8461 52.7493 24.6594 53.2409 23.422 53.2409C22.1846 53.2409 20.9978 52.7493 20.1229 51.8743C19.2479 50.9994 18.7563 49.8126 18.7563 48.5752V44.8868C18.7563 43.6494 19.2479 42.4627 20.1229 41.5877C20.9978 40.7127 22.1846 40.2212 23.422 40.2212C24.6594 40.2212 25.8461 40.7127 26.721 41.5877C27.596 42.4627 28.0876 43.6494 28.0876 44.8868V44.8868Z" fill="black"/>
</svg>
