<svg width="24" height="24" viewBox="0 0 24 24" fill="none" xmlns="http://www.w3.org/2000/svg">
<g clip-path="url(#clip0)">
<path d="M13.4657 7.83932C13.4666 7.64513 13.31 7.48699 13.1158 7.48605C13.1152 7.48605 13.1147 7.48605 13.1141 7.48605C12.9207 7.48605 12.7636 7.64232 12.7626 7.83585L12.7617 8.01293C12.5129 7.82146 12.2101 7.71305 11.873 7.71305C11.0438 7.71305 10.1862 8.43037 10.1862 9.6307C10.1862 10.7255 10.9277 11.6162 11.839 11.6162C12.2352 11.6162 12.5939 11.4492 12.8724 11.168C12.9278 11.28 13.0003 11.3831 13.0886 11.4719C13.2846 11.6689 13.5372 11.7774 13.7998 11.7774C14.5598 11.7774 15.041 11.2483 15.2381 10.7531C15.5438 9.98425 15.5988 9.33639 15.4163 8.65263C15.4153 8.64902 15.4143 8.64537 15.4132 8.64176C15.1369 7.72627 14.5187 6.97665 13.6725 6.531C12.8265 6.08539 11.8584 5.9999 10.9465 6.29022C10.0824 6.56526 9.36355 7.15828 8.9223 7.95997C8.48091 8.76189 8.36486 9.68643 8.59547 10.5633C8.79523 11.3228 9.2265 11.978 9.84272 12.4581C10.436 12.9203 11.175 13.1863 11.9236 13.207C11.927 13.2071 11.9302 13.2072 11.9335 13.2072C12.1231 13.2072 12.2794 13.0561 12.2848 12.8653C12.2901 12.6713 12.1372 12.5096 11.9431 12.5042C10.6915 12.4697 9.59458 11.5979 9.27543 10.3845C9.0909 9.68282 9.18427 8.94221 9.53824 8.29899C9.89226 7.65577 10.4681 7.18035 11.1598 6.9602C11.8908 6.72748 12.6668 6.79601 13.3449 7.15307C14.0212 7.50925 14.5158 8.10766 14.7382 8.83857C14.8872 9.40145 14.7973 9.95885 14.5848 10.4933C14.5153 10.668 14.2997 11.0743 13.7998 11.0743C13.6998 11.0743 13.6236 11.0128 13.587 10.976C13.5018 10.8903 13.4512 10.7641 13.4518 10.6385L13.4657 7.83932ZM11.839 10.9131C11.3823 10.9131 10.8893 10.4228 10.8893 9.6307C10.8893 8.8704 11.3894 8.41612 11.873 8.41612C12.3785 8.41612 12.7354 8.88573 12.754 9.56503L12.7534 9.69356C12.7266 10.3724 12.3268 10.9131 11.839 10.9131V10.9131Z" fill="#8037FF"/>
<path d="M22.6593 22.4929C22.6593 22.4928 22.6593 22.4926 22.6593 22.4925V10.4995C22.6593 10.0949 22.4943 9.70035 22.2067 9.41603C22.2063 9.41565 22.206 9.41518 22.2056 9.41481C22.2054 9.41462 22.2052 9.41443 22.2049 9.4142C22.2043 9.41359 22.2037 9.41288 22.2031 9.41228L20.8214 8.05624V7.26336C20.8214 7.06917 20.664 6.91182 20.4699 6.91182C20.2757 6.91182 20.1183 7.06917 20.1183 7.26336V11.0017L13.7307 17.378L12.7261 16.826C12.2716 16.5761 11.7286 16.5761 11.274 16.8259L10.2693 17.378L3.88174 11.0017V4.93319C3.88174 4.48092 4.24973 4.11293 4.702 4.11293H19.2981C19.7503 4.11293 20.1183 4.48092 20.1183 4.93319V5.76698C20.1183 5.96117 20.2757 6.11852 20.4699 6.11852C20.664 6.11852 20.8214 5.96117 20.8214 5.76698V4.93319C20.8214 4.0932 20.1381 3.40986 19.2981 3.40986H16.0873L13.0225 0.401835C13.0192 0.398554 13.0158 0.39532 13.0123 0.392227C12.4352 -0.130719 11.5648 -0.130766 10.9877 0.392227C10.9842 0.39532 10.9809 0.398554 10.9775 0.401835L7.91269 3.40986H4.70195C3.86201 3.40986 3.17862 4.0932 3.17862 4.93319V8.05628L1.79695 9.41232C1.79638 9.41289 1.79582 9.41349 1.79526 9.4141C1.79498 9.41438 1.7947 9.41457 1.79441 9.41485C1.7939 9.41537 1.79348 9.41593 1.79301 9.4164C1.50559 9.70072 1.3407 10.0951 1.3407 10.4995V14.511C1.3407 14.7052 1.49809 14.8625 1.69223 14.8625C1.88638 14.8625 2.04377 14.7052 2.04377 14.511V10.4995C2.04377 10.4012 2.06271 10.3044 2.09674 10.2134L3.28179 11.3963L9.62744 17.7307L2.04382 21.8982V16.043C2.04382 15.8489 1.88642 15.6915 1.69228 15.6915C1.49814 15.6915 1.34075 15.8489 1.34075 16.043V22.4925V22.4929C1.34075 22.4947 1.34084 22.4966 1.34089 22.4984C1.34412 23.3269 2.01898 24 2.84827 24H15.8268C16.021 24 16.1783 23.8427 16.1783 23.6485C16.1783 23.4543 16.021 23.2969 15.8268 23.2969H2.84827C2.4718 23.2969 2.15584 23.0367 2.06857 22.6868L10.3769 18.1211L11.6126 17.4421C11.8552 17.3088 12.1448 17.3087 12.3874 17.4421L13.6231 18.1211L21.9315 22.6869C21.8442 23.0367 21.5282 23.2969 21.1517 23.2969H17.3589C17.1647 23.2969 17.0074 23.4543 17.0074 23.6485C17.0074 23.8427 17.1647 24 17.3589 24H21.1518C21.981 24 22.6559 23.3269 22.6592 22.4984C22.6592 22.4966 22.6593 22.4947 22.6593 22.4929V22.4929ZM11.4646 0.908985C11.771 0.63563 12.2291 0.635584 12.5355 0.908985L15.0836 3.40986H8.91645L11.4646 0.908985ZM3.17867 10.2999L2.54295 9.66529L3.17867 9.04138V10.2999ZM20.7182 11.3963L21.9033 10.2133C21.9373 10.3044 21.9562 10.4012 21.9562 10.4995V21.8981L14.3725 17.7307L20.7182 11.3963ZM21.4571 9.66529L20.8214 10.2999V9.04138L21.4571 9.66529Z" fill="#8037FF"/>
</g>
<defs>
<clipPath id="clip0">
<rect width="24" height="24" fill="white"/>
</clipPath>
</defs>
</svg>
