<svg width="24" height="24" viewBox="0 0 24 24" fill="none" xmlns="http://www.w3.org/2000/svg">
<path d="M12.046 1.87501C11.7868 1.87314 11.5754 2.08173 11.5735 2.34048C11.5716 2.59923 11.7797 2.81064 12.039 2.81251C12.2977 2.81439 12.5091 2.60626 12.511 2.34751C12.5129 2.08876 12.3047 1.87736 12.046 1.87501Z" fill="#8037FF"/>
<path d="M12.0247 4.68758C10.2148 4.67474 8.73253 6.13485 8.71884 7.94418C8.7052 9.75342 10.1661 11.2364 11.9754 11.25C11.9838 11.2501 11.9922 11.2501 12.0006 11.2501C13.7984 11.2501 15.2677 9.79434 15.2812 7.9934C15.2949 6.18426 13.834 4.70122 12.0247 4.68758ZM12.0005 10.3126C11.9946 10.3126 11.9884 10.3126 11.9825 10.3125C10.6901 10.3028 9.64655 9.24352 9.6563 7.95122C9.666 6.66473 10.7154 5.62495 11.9996 5.62495C12.0055 5.62495 12.0117 5.62499 12.0176 5.62504C13.31 5.63479 14.3535 6.69407 14.3438 7.98637C14.334 9.27286 13.2847 10.3126 12.0005 10.3126Z" fill="#8037FF"/>
<path d="M14.0452 2.23069C13.8013 2.14416 13.5333 2.27189 13.4467 2.51593C13.3602 2.75996 13.488 3.02785 13.732 3.11438C15.7967 3.84615 17.1727 5.8126 17.1562 8.00762C17.1543 8.26647 17.3625 8.47792 17.6214 8.47989C17.6226 8.47989 17.6238 8.47989 17.625 8.47989C17.8822 8.47989 18.0917 8.27233 18.0937 8.01466C18.1132 5.42026 16.4862 3.09586 14.0452 2.23069Z" fill="#8037FF"/>
<path d="M14.8761 17.6458C17.9939 13.6325 19.9423 11.5398 19.9686 8.02867C20.0016 3.61102 16.4165 0 11.9992 0C7.63344 0 4.06446 3.53569 4.03127 7.90914C4.00446 11.5155 5.98911 13.6054 9.12842 17.6451C6.00537 18.1118 4.03127 19.2845 4.03127 20.7188C4.03127 21.6796 4.91937 22.5418 6.53201 23.1465C7.99981 23.6969 9.94171 24 11.9999 24C14.0582 24 16.0001 23.6969 17.4679 23.1465C19.0805 22.5417 19.9686 21.6795 19.9686 20.7187C19.9686 19.2852 17.9963 18.1128 14.8761 17.6458ZM4.96873 7.91622C4.99798 4.05704 8.14681 0.937502 11.9993 0.937502C15.8974 0.937502 19.0602 4.12445 19.0312 8.02169C19.0062 11.3561 16.9399 13.411 13.6409 17.7114C13.0525 18.4781 12.5122 19.203 12.0007 19.9121C11.4906 19.2026 10.9611 18.4907 10.3638 17.7111C6.92853 13.2306 4.94332 11.3311 4.96873 7.91622ZM11.9999 23.0625C7.97567 23.0625 4.96873 21.8252 4.96873 20.7188C4.96873 19.8983 6.7663 18.8618 9.78871 18.5029C10.4568 19.3795 11.0426 20.1759 11.6171 20.9893C11.7048 21.1135 11.8474 21.1874 11.9995 21.1875C11.9997 21.1875 11.9998 21.1875 11.9999 21.1875C12.1519 21.1875 12.2945 21.1139 12.3824 20.9899C12.9514 20.1871 13.5532 19.371 14.2156 18.5034C17.2352 18.8627 19.0312 19.8989 19.0312 20.7188C19.0311 21.8252 16.0242 23.0625 11.9999 23.0625Z" fill="#8037FF"/>
</svg>
