<svg width="24" height="24" viewBox="0 0 24 24" fill="none" xmlns="http://www.w3.org/2000/svg">
<path d="M18.7969 2.79164C18.9911 2.79164 19.1484 2.63423 19.1484 2.44008V1.41262C19.1484 0.633703 18.5147 0 17.7358 0H6.26423C5.48531 0 4.85156 0.633703 4.85156 1.41262V22.5874C4.85156 23.3663 5.48531 24 6.26423 24H17.7358C18.5147 24 19.1485 23.3663 19.1485 22.5874V4.08225C19.1485 3.88809 18.9911 3.73069 18.7969 3.73069C18.6027 3.73069 18.4454 3.88809 18.4454 4.08225V21.6562H9.3075C9.1133 21.6562 8.95594 21.8137 8.95594 22.0078C8.95594 22.202 9.1133 22.3594 9.3075 22.3594H18.4453V22.5874C18.4453 22.9786 18.127 23.2969 17.7358 23.2969H6.26423C5.87297 23.2969 5.55469 22.9786 5.55469 22.5874V22.3594H7.68572C7.87992 22.3594 8.03728 22.202 8.03728 22.0078C8.03728 21.8137 7.87992 21.6562 7.68572 21.6562H5.55469V1.41262C5.55469 1.02141 5.87297 0.703125 6.26423 0.703125H8.13281V1.38516C8.13281 1.89558 8.54808 2.31084 9.0585 2.31084H14.9415C15.4519 2.31084 15.8672 1.89558 15.8672 1.38516V0.703125H17.7358C18.127 0.703125 18.4453 1.02141 18.4453 1.41262V2.44008C18.4453 2.63423 18.6027 2.79164 18.7969 2.79164V2.79164ZM15.1641 1.38516C15.1641 1.50787 15.0642 1.60772 14.9415 1.60772H9.0585C8.93578 1.60772 8.83594 1.50787 8.83594 1.38516V0.703125H15.1641V1.38516Z" fill="#8037FF"/>
<path d="M10.5676 10.6363C10.571 10.6339 10.5744 10.6314 10.5777 10.6288C10.8757 10.3966 10.9453 9.96827 10.7358 9.65341L9.53785 7.85637C9.3225 7.5334 8.89308 7.43684 8.56013 7.63648L7.81111 8.08582C7.52892 8.25204 7.32412 8.51707 7.23361 8.83531C6.94884 9.87354 7.15008 11.6518 9.72581 14.2276C11.7638 16.2655 13.3023 16.8169 14.3718 16.8169C14.654 16.8169 14.9038 16.7785 15.1212 16.7188C15.4363 16.6291 15.7013 16.4243 15.866 16.1446L16.3169 15.3931C16.5165 15.0602 16.4199 14.6308 16.097 14.4154C16.0969 14.4154 16.0969 14.4154 16.0969 14.4154L14.2996 13.2173C13.9851 13.0081 13.5568 13.0776 13.3245 13.3756C13.3219 13.3789 13.3195 13.3822 13.317 13.3856L12.9313 13.9189C12.9247 13.9259 12.9143 13.9277 12.9062 13.9232C12.8729 13.9046 12.8389 13.8862 12.8041 13.8672C12.4853 13.6937 12.0885 13.4778 11.2826 12.6709C10.4742 11.8614 10.2581 11.4648 10.0844 11.1461C10.0659 11.1124 10.048 11.0794 10.0304 11.0477C10.0256 11.039 10.0274 11.0285 10.0344 11.022L10.5676 10.6363ZM9.41555 11.3889C9.43256 11.4195 9.44958 11.4507 9.46697 11.4826C9.66225 11.8409 9.90525 12.2868 10.7851 13.1678C11.663 14.0468 12.1094 14.2897 12.468 14.4849C12.5009 14.5028 12.5329 14.5202 12.565 14.5381C12.8806 14.7129 13.2695 14.6322 13.4897 14.3464C13.4919 14.3435 13.494 14.3407 13.496 14.3379L13.8808 13.8058C13.8885 13.798 13.9008 13.7965 13.9099 13.8025L15.7069 15.0005C15.7172 15.0073 15.7202 15.021 15.7139 15.0315L15.2616 15.7854C15.1875 15.9112 15.0692 16.0025 14.9319 16.0416C13.2946 16.4906 11.2789 14.7863 10.223 13.7304C9.16706 12.6745 7.46259 10.6585 7.91072 9.02454C7.95075 8.88401 8.04211 8.76574 8.17041 8.69018L8.92172 8.23943C8.92547 8.23718 8.92955 8.2361 8.93363 8.2361C8.94108 8.2361 8.94834 8.23976 8.9528 8.24637L10.1506 10.0431C10.1568 10.0524 10.1553 10.0648 10.1475 10.0725L9.61542 10.4573C9.61256 10.4593 9.60975 10.4614 9.60699 10.4636C9.32114 10.6837 9.24047 11.0726 9.41555 11.3889V11.3889Z" fill="#8037FF"/>
<path d="M14.0394 12.1748C14.0394 12.369 14.1968 12.5264 14.391 12.5264C14.5852 12.5264 14.7425 12.369 14.7425 12.1748C14.7425 10.5403 13.4127 9.21045 11.7782 9.21045C11.584 9.21045 11.4266 9.36786 11.4266 9.56201C11.4266 9.75617 11.584 9.91358 11.7782 9.91358C13.025 9.91358 14.0394 10.928 14.0394 12.1748Z" fill="#8037FF"/>
<path d="M16.8641 12.1753C16.8641 9.37091 14.5826 7.08936 11.7782 7.08936C11.584 7.08936 11.4266 7.24676 11.4266 7.44092C11.4266 7.63508 11.584 7.79248 11.7782 7.79248C14.1949 7.79248 16.161 9.75861 16.161 12.1753C16.161 12.3695 16.3184 12.5269 16.5126 12.5269C16.7068 12.5269 16.8641 12.3695 16.8641 12.1753Z" fill="#8037FF"/>
</svg>
