<svg width="63" height="61" viewBox="0 0 63 61" fill="none" xmlns="http://www.w3.org/2000/svg">
<circle cx="31.4608" cy="30.4608" r="6.73913" fill="#3772FF"/>
<path fill-rule="evenodd" clip-rule="evenodd" d="M37.945 3.93066C34.4584 0.399209 28.7692 0.362782 25.2378 3.8493C21.7063 7.33582 21.6699 13.025 25.1564 16.5565L26.033 17.4444L29.9553 27.4349C30.4925 28.8033 32.4291 28.8033 32.9663 27.4349L36.7886 17.6992L37.8636 16.6378C41.3951 13.1513 41.4315 7.46212 37.945 3.93066Z" fill="#3772FF"/>
<path fill-rule="evenodd" clip-rule="evenodd" d="M52.0422 49.4311C56.8044 48.0352 59.5334 43.0431 58.1375 38.2809C56.7416 33.5187 51.7495 30.7898 46.9873 32.1856L45.7899 32.5366L35.134 31.2544C33.6744 31.0787 32.7564 32.7839 33.7066 33.9056L40.4672 41.8862L40.8921 43.3358C42.2879 48.098 47.2801 50.827 52.0422 49.4311Z" fill="#3772FF"/>
<path fill-rule="evenodd" clip-rule="evenodd" d="M11.5422 48.8923C6.78003 47.4964 4.05108 42.5043 5.44695 37.7421C6.84282 32.9799 11.8349 30.251 16.5971 31.6468L17.7945 31.9978L28.4504 30.7155C29.91 30.5399 30.828 32.2451 29.8778 33.3668L23.1173 41.3473L22.6924 42.797C21.2965 47.5592 16.3044 50.2881 11.5422 48.8923Z" fill="#3772FF"/>
<path d="M62.7304 30.1913C62.7304 46.71 48.9787 60.113 32 60.113C15.0213 60.113 1.26957 46.71 1.26957 30.1913C1.26957 13.6727 15.0213 0.269565 32 0.269565C48.9787 0.269565 62.7304 13.6727 62.7304 30.1913Z" stroke="#4F4F4F" stroke-width="0.53913"/>
<circle cx="31.5508" cy="30.3712" r="7.9971" stroke="#4F4F4F" stroke-width="0.53913"/>
<circle cx="31.5508" cy="30.1914" r="19.3188" stroke="#4F4F4F" stroke-width="0.53913"/>
<line x1="31.1015" y1="22.2839" x2="31.1015" y2="-0.000123978" stroke="#4F4F4F" stroke-width="0.898551"/>
<line x1="39.8137" y1="30.2812" x2="62.9962" y2="30.0912" stroke="#4F4F4F" stroke-width="0.898551"/>
<line x1="32.0001" y1="38.6377" x2="32.0001" y2="60.3826" stroke="#4F4F4F" stroke-width="0.898551"/>
<line x1="23.4567" y1="31.5391" x2="0.992912" y2="31.1796" stroke="#4F4F4F" stroke-width="0.898551"/>
<line x1="37.5211" y1="24.8435" x2="53.5153" y2="8.6696" stroke="#4F4F4F" stroke-width="0.898551"/>
<line x1="25.7509" y1="36.0872" x2="9.9364" y2="51.1828" stroke="#4F4F4F" stroke-width="0.898551"/>
<line x1="25.123" y1="25.1177" x2="9.48821" y2="9.48295" stroke="#4F4F4F" stroke-width="0.898551"/>
<line x1="37.7989" y1="35.6245" x2="53.7931" y2="51.6187" stroke="#4F4F4F" stroke-width="0.898551"/>
</svg>
