<svg width="412" height="61" viewBox="0 0 412 61" fill="none" xmlns="http://www.w3.org/2000/svg">
<ellipse cx="31.3134" cy="30.4608" rx="6.7065" ry="6.73913" fill="#3772FF"/>
<path fill-rule="evenodd" clip-rule="evenodd" d="M37.7662 3.93024C34.2967 0.399002 28.6351 0.362553 25.1207 3.84907C21.6064 7.33559 21.5699 13.0246 25.0394 16.5558L25.912 17.444L29.8071 27.4137C30.343 28.7854 32.2841 28.7854 32.8201 27.4137L36.6156 17.6989L37.685 16.638C41.1996 13.1513 41.2358 7.46169 37.7662 3.93024Z" fill="#3772FF"/>
<path fill-rule="evenodd" clip-rule="evenodd" d="M51.7951 49.4312C56.5342 48.0354 59.2499 43.0432 57.8608 38.2812C56.4717 33.519 51.5036 30.7899 46.7643 32.1859L45.5733 32.5367L34.9716 31.2547C33.5156 31.0787 32.6022 32.7834 33.5501 33.9079L40.276 41.8862L40.699 43.3362C42.088 48.0983 47.0559 50.8271 51.7951 49.4312Z" fill="#3772FF"/>
<path fill-rule="evenodd" clip-rule="evenodd" d="M11.4913 48.8922C6.75219 47.4963 4.03646 42.5042 5.42553 37.7421C6.81464 32.9799 11.7827 30.2509 16.522 31.6468L17.713 31.9976L28.3147 30.7157C29.7708 30.5396 30.6841 32.2444 29.7362 33.3688L23.0104 41.347L22.5874 42.7972C21.1984 47.5592 16.2305 50.288 11.4913 48.8922Z" fill="#3772FF"/>
<path d="M62.4302 30.1913C62.4302 46.7112 48.7444 60.113 31.8499 60.113C14.9553 60.113 1.26957 46.7112 1.26957 30.1913C1.26957 13.6714 14.9553 0.269565 31.8499 0.269565C48.7444 0.269565 62.4302 13.6714 62.4302 30.1913Z" stroke="#1D1D1F" stroke-width="0.53913"/>
<path d="M39.3597 30.3712C39.3597 34.7891 35.796 38.3683 31.4027 38.3683C27.0093 38.3683 23.4456 34.7891 23.4456 30.3712C23.4456 25.9532 27.0093 22.3741 31.4027 22.3741C35.796 22.3741 39.3597 25.9532 39.3597 30.3712Z" stroke="#1D1D1F" stroke-width="0.53913"/>
<path d="M50.6267 30.1914C50.6267 40.8622 42.0186 49.5103 31.4027 49.5103C20.7868 49.5103 12.1787 40.8622 12.1787 30.1914C12.1787 19.5207 20.7868 10.8726 31.4027 10.8726C42.0186 10.8726 50.6267 19.5207 50.6267 30.1914Z" stroke="#1D1D1F" stroke-width="0.53913"/>
<line x1="30.9536" y1="22.2842" x2="30.9536" y2="0.000120163" stroke="#1D1D1F" stroke-width="0.898551"/>
<line y1="-0.449275" x2="23.071" y2="-0.449275" transform="matrix(0.999966 -0.00823633 0.00815676 0.999967 39.6294 30.7305)" stroke="#1D1D1F" stroke-width="0.898551"/>
<line x1="31.8521" y1="38.6377" x2="31.8521" y2="60.3826" stroke="#1D1D1F" stroke-width="0.898551"/>
<line y1="-0.449275" x2="22.3579" y2="-0.449275" transform="matrix(-0.999871 -0.0160758 0.0159205 -0.999873 23.355 31.0898)" stroke="#1D1D1F" stroke-width="0.898551"/>
<line y1="-0.449275" x2="22.6923" y2="-0.449275" transform="matrix(0.701418 -0.71275 0.709337 0.704869 37.6621 25.1592)" stroke="#1D1D1F" stroke-width="0.898551"/>
<line y1="-0.449275" x2="21.8073" y2="-0.449275" transform="matrix(-0.721679 0.692228 -0.68872 -0.725027 25.3223 35.7622)" stroke="#1D1D1F" stroke-width="0.898551"/>
<line y1="-0.449275" x2="22.0574" y2="-0.449275" transform="matrix(-0.705388 -0.708821 0.705388 -0.708821 25.3223 24.8003)" stroke="#1D1D1F" stroke-width="0.898551"/>
<line y1="-0.449275" x2="22.5645" y2="-0.449275" transform="matrix(0.705388 0.708821 -0.705388 0.708821 37.3044 35.9419)" stroke="#1D1D1F" stroke-width="0.898551"/>
<path d="M86.957 24.7656V20.8516C86.957 20.8516 86.9414 20.8203 86.9102 20.7578C85.4414 20.7266 84.5273 20.7109 84.168 20.7109C82.2305 20.7266 81.2617 20.75 81.2617 20.7812L81.3086 20.8281V24.6719C81.3086 25.5 81.3711 26.1562 81.4961 26.6406C81.5273 26.75 81.7383 26.875 82.1289 27.0156C82.5352 27.1562 82.8086 27.2266 82.9492 27.2266C83.0117 27.2266 83.043 27.3438 83.043 27.5781C83.0586 27.8125 83.043 27.9844 82.9961 28.0938C82.918 28.0938 82.4336 28.0625 81.543 28C80.668 27.9375 80.0273 27.9062 79.6211 27.9062C79.2148 27.9062 78.6211 27.9375 77.8398 28C77.0742 28.0469 76.5742 28.0781 76.3398 28.0938C76.2773 28.0312 76.2461 27.8984 76.2461 27.6953C76.2461 27.3828 76.2617 27.2266 76.293 27.2266C76.4805 27.2266 76.7773 27.1641 77.1836 27.0391C77.5898 26.9141 77.8164 26.7891 77.8633 26.6641C77.9727 26.2422 78.0273 25.6094 78.0273 24.7656V15.8125C78.0273 14.8594 77.9727 14.25 77.8633 13.9844C77.7852 13.8125 77.5664 13.6641 77.207 13.5391C76.8477 13.4141 76.5742 13.3516 76.3867 13.3516C76.3242 13.3516 76.293 13.1953 76.293 12.8828C76.293 12.6484 76.3086 12.5156 76.3398 12.4844C78.4961 12.5781 79.582 12.625 79.5977 12.625C80.0039 12.625 81.1445 12.5781 83.0195 12.4844C83.0664 12.5625 83.0898 12.7266 83.0898 12.9766C83.0898 13.2266 83.0586 13.3516 82.9961 13.3516C82.8555 13.3516 82.582 13.4219 82.1758 13.5625C81.7695 13.6875 81.543 13.8047 81.4961 13.9141C81.3711 14.2422 81.3086 14.9062 81.3086 15.9062V19.2344L81.3555 19.3047C82.8867 19.3359 83.8242 19.3516 84.168 19.3516C84.5898 19.3516 85.5039 19.3359 86.9102 19.3047C86.9414 19.2734 86.957 19.2422 86.957 19.2109V15.8125C86.957 15 86.9023 14.3828 86.793 13.9609C86.7461 13.8359 86.5273 13.7031 86.1367 13.5625C85.7617 13.4219 85.4883 13.3516 85.3164 13.3516C85.2539 13.3516 85.2148 13.2266 85.1992 12.9766C85.1992 12.7109 85.2305 12.5469 85.293 12.4844C87.4492 12.5781 88.6133 12.625 88.7852 12.625C89.0195 12.625 90.0742 12.5781 91.9492 12.4844C91.9961 12.625 92.0195 12.7656 92.0195 12.9062C92.0195 13.2031 91.9805 13.3516 91.9023 13.3516C91.7617 13.3516 91.4883 13.4219 91.082 13.5625C90.6758 13.6875 90.457 13.8047 90.4258 13.9141C90.3008 14.3828 90.2383 15.0469 90.2383 15.9062V24.6719C90.2383 25.5156 90.3008 26.1797 90.4258 26.6641C90.457 26.7734 90.668 26.8906 91.0586 27.0156C91.4648 27.1406 91.7383 27.2031 91.8789 27.2031C91.9414 27.2031 91.9727 27.3672 91.9727 27.6953C91.9727 27.8203 91.9492 27.9531 91.9023 28.0938C91.7617 28.0938 91.3008 28.0625 90.5195 28C89.7383 27.9375 89.1445 27.9062 88.7383 27.9062C88.3164 27.9062 87.6758 27.9375 86.8164 28C85.9727 28.0469 85.4492 28.0781 85.2461 28.0938C85.1836 28.0312 85.1523 27.875 85.1523 27.625C85.168 27.3594 85.207 27.2266 85.2695 27.2266C85.4414 27.2266 85.7305 27.1562 86.1367 27.0156C86.543 26.875 86.7695 26.7422 86.8164 26.6172C86.9102 26.2578 86.957 25.6406 86.957 24.7656ZM96.4727 12.6719C96.582 12.6719 97.7617 12.6094 100.012 12.4844C100.074 12.5469 100.105 12.7109 100.105 12.9766C100.105 13.2266 100.074 13.3516 100.012 13.3516C99.7461 13.3516 99.418 13.4219 99.0273 13.5625C98.6523 13.7031 98.4648 13.9141 98.4648 14.1953C98.4648 14.3359 98.6445 14.8516 99.0039 15.7422L102.145 23.4766L105.449 15.7656C105.762 15.0625 105.918 14.5312 105.918 14.1719C105.918 13.9375 105.754 13.7422 105.426 13.5859C105.113 13.4297 104.723 13.3516 104.254 13.3516C104.207 13.3359 104.184 13.2109 104.184 12.9766C104.184 12.7422 104.199 12.5781 104.23 12.4844C104.449 12.5 104.848 12.5391 105.426 12.6016C106.02 12.6484 106.512 12.6719 106.902 12.6719C107.293 12.6719 107.77 12.6484 108.332 12.6016C108.895 12.5391 109.324 12.5 109.621 12.4844C109.684 12.5469 109.715 12.6641 109.715 12.8359C109.715 13.1641 109.699 13.3281 109.668 13.3281C109.496 13.3281 109.223 13.3984 108.848 13.5391C108.473 13.6641 108.168 13.8203 107.934 14.0078C107.809 14.1172 107.512 14.6875 107.043 15.7188L101.98 27.3672C101.855 27.6328 101.691 27.8438 101.488 28C101.301 28.1562 101.129 28.2344 100.973 28.2344C100.754 28.2344 100.574 28.1328 100.434 27.9297L95.6289 16.0469C95.1602 14.875 94.9023 14.2344 94.8555 14.125C94.7617 13.875 94.5039 13.6875 94.082 13.5625C93.6758 13.4219 93.3633 13.3516 93.1445 13.3516C93.082 13.3516 93.0508 13.2188 93.0508 12.9531C93.0508 12.6875 93.0664 12.5312 93.0977 12.4844C93.1758 12.4844 93.6523 12.5156 94.5273 12.5781C95.418 12.6406 96.0664 12.6719 96.4727 12.6719ZM119.676 27.2266C120.02 27.2266 120.371 27.1562 120.73 27.0156C121.09 26.8594 121.27 26.6562 121.27 26.4062C121.27 26.375 121.074 25.8516 120.684 24.8359L119.98 23.125C119.918 23.0625 119.863 23.0312 119.816 23.0312C119.52 23.0156 118.77 23.0078 117.566 23.0078C116.535 23.0078 115.746 23.0156 115.199 23.0312C115.137 23.0312 115.082 23.0703 115.035 23.1484C115.035 23.1484 114.777 23.7422 114.262 24.9297C113.949 25.6328 113.793 26.1094 113.793 26.3594C113.793 26.6094 113.934 26.8047 114.215 26.9453C114.496 27.0859 114.738 27.1719 114.941 27.2031C115.16 27.2188 115.348 27.2266 115.504 27.2266C115.551 27.2422 115.574 27.3672 115.574 27.6016C115.574 27.8359 115.559 28 115.527 28.0938C115.324 28.0781 114.91 28.0469 114.285 28C113.676 27.9375 113.176 27.9062 112.785 27.9062C112.395 27.9062 111.926 27.9375 111.379 28C110.832 28.0469 110.41 28.0781 110.113 28.0938C110.051 28.0312 110.02 27.9141 110.02 27.7422C110.02 27.4141 110.035 27.25 110.066 27.25C110.254 27.25 110.566 27.1719 111.004 27.0156C111.441 26.8438 111.715 26.6719 111.824 26.5C111.949 26.3125 112.074 26.0859 112.199 25.8203C112.34 25.5391 112.449 25.3125 112.527 25.1406L112.645 24.8594L117.824 12.9531C117.996 12.5469 118.285 12.3438 118.691 12.3438C118.926 12.3438 119.113 12.4453 119.254 12.6484L124.059 24.5312C124.355 25.25 124.613 25.8906 124.832 26.4531C124.926 26.7031 125.184 26.8984 125.605 27.0391C126.027 27.1641 126.348 27.2266 126.566 27.2266C126.629 27.2266 126.66 27.3594 126.66 27.625C126.66 27.8906 126.645 28.0469 126.613 28.0938C126.551 28.0938 126.066 28.0625 125.16 28C124.27 27.9375 123.621 27.9062 123.215 27.9062C123.105 27.9062 121.926 27.9688 119.676 28.0938C119.613 28.0312 119.582 27.875 119.582 27.625C119.582 27.3594 119.613 27.2266 119.676 27.2266ZM115.832 21.5312C116.301 21.5781 116.879 21.6016 117.566 21.6016C118.191 21.6016 118.746 21.5859 119.23 21.5547L119.301 21.4375L117.613 17.2422L115.785 21.4375C115.785 21.5 115.801 21.5312 115.832 21.5312ZM140.957 23.7812C140.957 24 140.832 24.6094 140.582 25.6094C140.348 26.6094 140.152 27.1406 139.996 27.2031C138.246 27.8438 136.488 28.1641 134.723 28.1641C132.66 28.1641 130.895 27.4062 129.426 25.8906C127.957 24.3594 127.223 22.5469 127.223 20.4531C127.223 18.2344 127.957 16.3359 129.426 14.7578C130.91 13.1641 132.754 12.3672 134.957 12.3672C136.66 12.3672 138.449 12.5938 140.324 13.0469C140.402 13.0625 140.496 13.5859 140.605 14.6172C140.73 15.6484 140.793 16.2812 140.793 16.5156C140.793 16.75 140.582 16.8672 140.16 16.8672C140.145 16.8672 140.02 16.8438 139.785 16.7969C139.707 16.5156 139.574 16.2188 139.387 15.9062C139.215 15.5938 138.949 15.2578 138.59 14.8984C138.246 14.5391 137.762 14.25 137.137 14.0312C136.527 13.7969 135.84 13.6797 135.074 13.6797C132.277 13.6797 130.879 15.7734 130.879 19.9609C130.879 21.9141 131.309 23.5625 132.168 24.9062C133.027 26.2344 134.246 26.8984 135.824 26.8984C136.98 26.8984 137.98 26.4766 138.824 25.6328C139.027 25.4297 139.207 25.1562 139.363 24.8125C139.535 24.4531 139.66 24.1562 139.738 23.9219C139.832 23.6719 139.887 23.5469 139.902 23.5469C140.543 23.5469 140.895 23.625 140.957 23.7812ZM150.941 12.625C151.254 12.625 151.691 12.6094 152.254 12.5781C152.832 12.5312 153.215 12.5 153.402 12.4844C153.559 12.9844 154.199 14.4609 155.324 16.9141C156.449 19.3516 157.285 21.25 157.832 22.6094H157.879C157.91 22.6094 157.926 22.6016 157.926 22.5859C159.129 19.6016 160.082 17.1406 160.785 15.2031L161.559 12.5781C161.84 12.6094 162.473 12.625 163.457 12.625C163.551 12.625 164.535 12.5781 166.41 12.4844C166.473 12.5781 166.504 12.7031 166.504 12.8594C166.504 13.1875 166.465 13.3516 166.387 13.3516H166.363C165.973 13.3516 165.645 13.4453 165.379 13.6328C165.145 13.8047 165.035 14.125 165.051 14.5938C165.082 15.2188 165.16 16.8359 165.285 19.4453C165.41 22.0547 165.488 23.7188 165.52 24.4375C165.566 25.3906 165.684 26.1094 165.871 26.5938C165.934 26.7344 166.137 26.875 166.48 27.0156C166.84 27.1562 167.09 27.2266 167.23 27.2266C167.293 27.2266 167.324 27.3828 167.324 27.6953C167.324 27.8672 167.309 28 167.277 28.0938C167.105 28.0781 166.668 28.0469 165.965 28C165.262 27.9375 164.707 27.9062 164.301 27.9062C163.879 27.9062 163.262 27.9375 162.449 28C161.637 28.0469 161.121 28.0781 160.902 28.0938C160.824 28.0156 160.785 27.8906 160.785 27.7188C160.785 27.3906 160.809 27.2266 160.855 27.2266C161.027 27.2266 161.293 27.1562 161.652 27.0156C162.012 26.875 162.23 26.7266 162.309 26.5703C162.434 26.3359 162.496 26.1172 162.496 25.9141C162.496 25.5547 162.48 25.0938 162.449 24.5312L162.262 18.5781C162.199 17.5312 162.137 17.0078 162.074 17.0078C162.043 17.0078 162.004 17.0625 161.957 17.1719L157.902 27.2734C157.84 27.4297 157.715 27.6016 157.527 27.7891C157.34 27.9609 157.152 28.0469 156.965 28.0469C156.918 28.0469 156.848 28.0312 156.754 28L151.598 16.4219L151.199 25.4453C151.199 25.8984 151.207 26.1797 151.223 26.2891C151.27 26.4922 151.613 26.7031 152.254 26.9219C152.895 27.125 153.316 27.2266 153.52 27.2266C153.582 27.2266 153.613 27.3828 153.613 27.6953C153.613 27.8672 153.598 28 153.566 28.0938C153.441 28.0938 152.973 28.0625 152.16 28C151.348 27.9375 150.738 27.9062 150.332 27.9062C149.926 27.9062 149.363 27.9375 148.645 28C147.926 28.0469 147.441 28.0781 147.191 28.0938C147.129 28.0312 147.098 27.8984 147.098 27.6953C147.098 27.3984 147.121 27.25 147.168 27.25C147.449 27.25 147.902 27.1328 148.527 26.8984C149.168 26.6641 149.504 26.3828 149.535 26.0547C149.566 25.6953 149.598 25.3203 149.629 24.9297C149.676 24.1172 149.73 22.9219 149.793 21.3438C149.855 19.75 149.91 18.2188 149.957 16.75C150.004 15.2812 150.035 14.4453 150.051 14.2422C150.051 14.0703 150.027 13.9297 149.98 13.8203C149.934 13.6953 149.684 13.5859 149.23 13.4922C148.777 13.3828 148.449 13.3281 148.246 13.3281C148.184 13.3281 148.152 13.1641 148.152 12.8359C148.152 12.6641 148.184 12.5469 148.246 12.4844C148.465 12.5 148.863 12.5312 149.441 12.5781C150.035 12.6094 150.535 12.625 150.941 12.625ZM172.129 12.5547C172.816 12.5547 174.027 12.5391 175.762 12.5078C177.496 12.4609 178.809 12.4375 179.699 12.4375C179.715 12.5938 179.941 13.75 180.379 15.9062C180.301 15.9844 180.121 16.0234 179.84 16.0234C179.668 16.0234 179.559 15.9688 179.512 15.8594C179.215 15.2656 178.746 14.7578 178.105 14.3359C177.465 13.9141 176.84 13.7031 176.23 13.7031H175.34C174.355 13.7031 173.848 13.8047 173.816 14.0078C173.738 14.3828 173.699 14.9922 173.699 15.8359V19.4453C173.699 19.5391 174.035 19.5859 174.707 19.5859H175.949C176.918 19.5859 177.449 19.5547 177.543 19.4922C177.621 19.4297 177.684 19.2031 177.73 18.8125C177.762 18.5781 177.809 18.3516 177.871 18.1328C177.887 18.0234 178.004 17.9688 178.223 17.9688C178.488 17.9688 178.66 18.0078 178.738 18.0859V22.5156C178.676 22.5781 178.512 22.6094 178.246 22.6094C178.043 22.6094 177.918 22.5469 177.871 22.4219C177.809 22.2031 177.754 22.0156 177.707 21.8594C177.66 21.7031 177.621 21.5859 177.59 21.5078C177.559 21.4297 177.52 21.3594 177.473 21.2969C177.441 21.2344 177.418 21.1953 177.402 21.1797C177.387 21.1641 177.355 21.1484 177.309 21.1328C177.262 21.1016 177.23 21.0781 177.215 21.0625C177.012 20.9375 176.402 20.875 175.387 20.875C174.262 20.875 173.699 20.9453 173.699 21.0859V24.6953C173.699 25.4453 173.762 26 173.887 26.3594C173.965 26.6094 174.496 26.7344 175.48 26.7344H176.09C177.059 26.7344 177.934 26.5312 178.715 26.125C178.98 25.9844 179.277 25.7188 179.605 25.3281C179.949 24.9375 180.215 24.5 180.402 24.0156C180.418 23.9219 180.527 23.875 180.73 23.875C181.105 23.875 181.34 23.9219 181.434 24.0156C180.668 26.1719 180.246 27.5156 180.168 28.0469C179.371 28.0469 178.105 28.0312 176.371 28C174.637 27.9688 173.23 27.9531 172.152 27.9531L168.73 28.0938C168.668 28.0312 168.637 27.8984 168.637 27.6953C168.637 27.3828 168.668 27.2266 168.73 27.2266C168.918 27.2266 169.207 27.1719 169.598 27.0625C170.004 26.9531 170.23 26.8359 170.277 26.7109C170.371 26.3516 170.418 25.6641 170.418 24.6484V15.7891C170.418 14.9297 170.371 14.3203 170.277 13.9609C170.23 13.8359 169.996 13.6953 169.574 13.5391C169.168 13.3828 168.879 13.3047 168.707 13.3047C168.645 13.3047 168.613 13.1641 168.613 12.8828C168.613 12.6328 168.637 12.4844 168.684 12.4375C169.934 12.5156 171.082 12.5547 172.129 12.5547ZM196.34 23.7812C196.34 24 196.215 24.6094 195.965 25.6094C195.73 26.6094 195.535 27.1406 195.379 27.2031C193.629 27.8438 191.871 28.1641 190.105 28.1641C188.043 28.1641 186.277 27.4062 184.809 25.8906C183.34 24.3594 182.605 22.5469 182.605 20.4531C182.605 18.2344 183.34 16.3359 184.809 14.7578C186.293 13.1641 188.137 12.3672 190.34 12.3672C192.043 12.3672 193.832 12.5938 195.707 13.0469C195.785 13.0625 195.879 13.5859 195.988 14.6172C196.113 15.6484 196.176 16.2812 196.176 16.5156C196.176 16.75 195.965 16.8672 195.543 16.8672C195.527 16.8672 195.402 16.8438 195.168 16.7969C195.09 16.5156 194.957 16.2188 194.77 15.9062C194.598 15.5938 194.332 15.2578 193.973 14.8984C193.629 14.5391 193.145 14.25 192.52 14.0312C191.91 13.7969 191.223 13.6797 190.457 13.6797C187.66 13.6797 186.262 15.7734 186.262 19.9609C186.262 21.9141 186.691 23.5625 187.551 24.9062C188.41 26.2344 189.629 26.8984 191.207 26.8984C192.363 26.8984 193.363 26.4766 194.207 25.6328C194.41 25.4297 194.59 25.1562 194.746 24.8125C194.918 24.4531 195.043 24.1562 195.121 23.9219C195.215 23.6719 195.27 23.5469 195.285 23.5469C195.926 23.5469 196.277 23.625 196.34 23.7812ZM208.293 24.7656V20.8516C208.293 20.8516 208.277 20.8203 208.246 20.7578C206.777 20.7266 205.863 20.7109 205.504 20.7109C203.566 20.7266 202.598 20.75 202.598 20.7812L202.645 20.8281V24.6719C202.645 25.5 202.707 26.1562 202.832 26.6406C202.863 26.75 203.074 26.875 203.465 27.0156C203.871 27.1562 204.145 27.2266 204.285 27.2266C204.348 27.2266 204.379 27.3438 204.379 27.5781C204.395 27.8125 204.379 27.9844 204.332 28.0938C204.254 28.0938 203.77 28.0625 202.879 28C202.004 27.9375 201.363 27.9062 200.957 27.9062C200.551 27.9062 199.957 27.9375 199.176 28C198.41 28.0469 197.91 28.0781 197.676 28.0938C197.613 28.0312 197.582 27.8984 197.582 27.6953C197.582 27.3828 197.598 27.2266 197.629 27.2266C197.816 27.2266 198.113 27.1641 198.52 27.0391C198.926 26.9141 199.152 26.7891 199.199 26.6641C199.309 26.2422 199.363 25.6094 199.363 24.7656V15.8125C199.363 14.8594 199.309 14.25 199.199 13.9844C199.121 13.8125 198.902 13.6641 198.543 13.5391C198.184 13.4141 197.91 13.3516 197.723 13.3516C197.66 13.3516 197.629 13.1953 197.629 12.8828C197.629 12.6484 197.645 12.5156 197.676 12.4844C199.832 12.5781 200.918 12.625 200.934 12.625C201.34 12.625 202.48 12.5781 204.355 12.4844C204.402 12.5625 204.426 12.7266 204.426 12.9766C204.426 13.2266 204.395 13.3516 204.332 13.3516C204.191 13.3516 203.918 13.4219 203.512 13.5625C203.105 13.6875 202.879 13.8047 202.832 13.9141C202.707 14.2422 202.645 14.9062 202.645 15.9062V19.2344L202.691 19.3047C204.223 19.3359 205.16 19.3516 205.504 19.3516C205.926 19.3516 206.84 19.3359 208.246 19.3047C208.277 19.2734 208.293 19.2422 208.293 19.2109V15.8125C208.293 15 208.238 14.3828 208.129 13.9609C208.082 13.8359 207.863 13.7031 207.473 13.5625C207.098 13.4219 206.824 13.3516 206.652 13.3516C206.59 13.3516 206.551 13.2266 206.535 12.9766C206.535 12.7109 206.566 12.5469 206.629 12.4844C208.785 12.5781 209.949 12.625 210.121 12.625C210.355 12.625 211.41 12.5781 213.285 12.4844C213.332 12.625 213.355 12.7656 213.355 12.9062C213.355 13.2031 213.316 13.3516 213.238 13.3516C213.098 13.3516 212.824 13.4219 212.418 13.5625C212.012 13.6875 211.793 13.8047 211.762 13.9141C211.637 14.3828 211.574 15.0469 211.574 15.9062V24.6719C211.574 25.5156 211.637 26.1797 211.762 26.6641C211.793 26.7734 212.004 26.8906 212.395 27.0156C212.801 27.1406 213.074 27.2031 213.215 27.2031C213.277 27.2031 213.309 27.3672 213.309 27.6953C213.309 27.8203 213.285 27.9531 213.238 28.0938C213.098 28.0938 212.637 28.0625 211.855 28C211.074 27.9375 210.48 27.9062 210.074 27.9062C209.652 27.9062 209.012 27.9375 208.152 28C207.309 28.0469 206.785 28.0781 206.582 28.0938C206.52 28.0312 206.488 27.875 206.488 27.625C206.504 27.3594 206.543 27.2266 206.605 27.2266C206.777 27.2266 207.066 27.1562 207.473 27.0156C207.879 26.875 208.105 26.7422 208.152 26.6172C208.246 26.2578 208.293 25.6406 208.293 24.7656ZM223.926 27.2266C224.27 27.2266 224.621 27.1562 224.98 27.0156C225.34 26.8594 225.52 26.6562 225.52 26.4062C225.52 26.375 225.324 25.8516 224.934 24.8359L224.23 23.125C224.168 23.0625 224.113 23.0312 224.066 23.0312C223.77 23.0156 223.02 23.0078 221.816 23.0078C220.785 23.0078 219.996 23.0156 219.449 23.0312C219.387 23.0312 219.332 23.0703 219.285 23.1484C219.285 23.1484 219.027 23.7422 218.512 24.9297C218.199 25.6328 218.043 26.1094 218.043 26.3594C218.043 26.6094 218.184 26.8047 218.465 26.9453C218.746 27.0859 218.988 27.1719 219.191 27.2031C219.41 27.2188 219.598 27.2266 219.754 27.2266C219.801 27.2422 219.824 27.3672 219.824 27.6016C219.824 27.8359 219.809 28 219.777 28.0938C219.574 28.0781 219.16 28.0469 218.535 28C217.926 27.9375 217.426 27.9062 217.035 27.9062C216.645 27.9062 216.176 27.9375 215.629 28C215.082 28.0469 214.66 28.0781 214.363 28.0938C214.301 28.0312 214.27 27.9141 214.27 27.7422C214.27 27.4141 214.285 27.25 214.316 27.25C214.504 27.25 214.816 27.1719 215.254 27.0156C215.691 26.8438 215.965 26.6719 216.074 26.5C216.199 26.3125 216.324 26.0859 216.449 25.8203C216.59 25.5391 216.699 25.3125 216.777 25.1406L216.895 24.8594L222.074 12.9531C222.246 12.5469 222.535 12.3438 222.941 12.3438C223.176 12.3438 223.363 12.4453 223.504 12.6484L228.309 24.5312C228.605 25.25 228.863 25.8906 229.082 26.4531C229.176 26.7031 229.434 26.8984 229.855 27.0391C230.277 27.1641 230.598 27.2266 230.816 27.2266C230.879 27.2266 230.91 27.3594 230.91 27.625C230.91 27.8906 230.895 28.0469 230.863 28.0938C230.801 28.0938 230.316 28.0625 229.41 28C228.52 27.9375 227.871 27.9062 227.465 27.9062C227.355 27.9062 226.176 27.9688 223.926 28.0938C223.863 28.0312 223.832 27.875 223.832 27.625C223.832 27.3594 223.863 27.2266 223.926 27.2266ZM220.082 21.5312C220.551 21.5781 221.129 21.6016 221.816 21.6016C222.441 21.6016 222.996 21.5859 223.48 21.5547L223.551 21.4375L221.863 17.2422L220.035 21.4375C220.035 21.5 220.051 21.5312 220.082 21.5312ZM244.598 15.7188C244.598 14.8281 244.496 14.2656 244.293 14.0312C244.152 13.8594 243.855 13.7031 243.402 13.5625C242.965 13.4219 242.652 13.3516 242.465 13.3516C242.402 13.3516 242.363 13.2266 242.348 12.9766C242.332 12.7109 242.348 12.5469 242.395 12.4844C243.832 12.6094 244.863 12.6719 245.488 12.6719C245.879 12.6719 246.41 12.6484 247.082 12.6016C247.77 12.5391 248.207 12.5 248.395 12.4844C248.457 12.6094 248.488 12.75 248.488 12.9062C248.488 13.2031 248.449 13.3516 248.371 13.3516C247.512 13.3516 246.863 13.6094 246.426 14.125C246.207 14.3906 246.098 14.9609 246.098 15.8359V24.7422C246.098 25.3047 246.129 26.3984 246.191 28.0234C246.129 28.0859 245.934 28.1172 245.605 28.1172C245.418 28.1172 245.176 27.9375 244.879 27.5781L235.34 15.7188V24.6953C235.34 25.5547 235.402 26.1094 235.527 26.3594C235.668 26.625 235.996 26.8359 236.512 26.9922C237.027 27.1328 237.402 27.2031 237.637 27.2031C237.684 27.2031 237.707 27.3359 237.707 27.6016C237.723 27.8672 237.715 28.0312 237.684 28.0938C237.543 28.0938 237.082 28.0625 236.301 28C235.52 27.9375 234.926 27.9062 234.52 27.9062C234.113 27.9062 233.598 27.9375 232.973 28C232.348 28.0469 231.895 28.0781 231.613 28.0938C231.566 28.0469 231.543 27.9062 231.543 27.6719C231.543 27.375 231.566 27.2266 231.613 27.2266C231.77 27.2266 231.949 27.2109 232.152 27.1797C232.355 27.1484 232.613 27.0625 232.926 26.9219C233.238 26.7656 233.465 26.5703 233.605 26.3359C233.762 26.0859 233.84 25.5156 233.84 24.625V15.4141C233.84 14.6016 233.723 14.0469 233.488 13.75C233.41 13.6406 233.137 13.5469 232.668 13.4688C232.199 13.3906 231.855 13.3516 231.637 13.3516C231.574 13.3516 231.535 13.2266 231.52 12.9766C231.504 12.7109 231.527 12.5469 231.59 12.4844C231.84 12.5 232.332 12.5391 233.066 12.6016C233.816 12.6484 234.395 12.6719 234.801 12.6719C235.332 12.6719 236.098 12.6094 237.098 12.4844C237.363 13.0156 237.879 13.7891 238.645 14.8047C239.426 15.8047 240.426 17.0469 241.645 18.5312C242.863 20.0156 243.832 21.2344 244.551 22.1875C244.582 22.0781 244.598 21.7578 244.598 21.2266V15.7188ZM251.488 15.7656C251.488 14.7656 251.426 14.1562 251.301 13.9375C251.223 13.8125 251.004 13.6875 250.645 13.5625C250.285 13.4219 250.02 13.3516 249.848 13.3516C249.785 13.3516 249.754 13.2188 249.754 12.9531C249.754 12.6719 249.77 12.5156 249.801 12.4844C250.035 12.5 250.41 12.5312 250.926 12.5781C251.441 12.6094 251.824 12.6328 252.074 12.6484C252.34 12.6484 252.715 12.6406 253.199 12.625C253.512 12.625 254.605 12.5781 256.48 12.4844C256.527 12.625 256.551 12.7656 256.551 12.9062C256.551 13.2031 256.52 13.3516 256.457 13.3516C256.316 13.3516 256.035 13.4219 255.613 13.5625C255.191 13.6875 254.965 13.8047 254.934 13.9141C254.887 14.1016 254.848 14.3672 254.816 14.7109C254.785 15.0391 254.77 15.3203 254.77 15.5547V15.9062V24.5781C254.77 25.4688 254.832 26.1562 254.957 26.6406C254.988 26.75 255.199 26.875 255.59 27.0156C255.996 27.1562 256.27 27.2266 256.41 27.2266C256.473 27.2266 256.504 27.375 256.504 27.6719C256.504 27.8594 256.488 28 256.457 28.0938C256.348 28.0938 255.879 28.0625 255.051 28C254.223 27.9375 253.605 27.9062 253.199 27.9062C252.777 27.9062 252.16 27.9375 251.348 28C250.535 28.0469 250.02 28.0781 249.801 28.0938C249.738 28.0312 249.707 27.9062 249.707 27.7188C249.707 27.3906 249.73 27.2266 249.777 27.2266C249.949 27.2266 250.238 27.1641 250.645 27.0391C251.051 26.8984 251.277 26.7656 251.324 26.6406C251.434 26.2188 251.488 25.5938 251.488 24.7656V15.7656ZM271.527 23.7812C271.527 24 271.402 24.6094 271.152 25.6094C270.918 26.6094 270.723 27.1406 270.566 27.2031C268.816 27.8438 267.059 28.1641 265.293 28.1641C263.23 28.1641 261.465 27.4062 259.996 25.8906C258.527 24.3594 257.793 22.5469 257.793 20.4531C257.793 18.2344 258.527 16.3359 259.996 14.7578C261.48 13.1641 263.324 12.3672 265.527 12.3672C267.23 12.3672 269.02 12.5938 270.895 13.0469C270.973 13.0625 271.066 13.5859 271.176 14.6172C271.301 15.6484 271.363 16.2812 271.363 16.5156C271.363 16.75 271.152 16.8672 270.73 16.8672C270.715 16.8672 270.59 16.8438 270.355 16.7969C270.277 16.5156 270.145 16.2188 269.957 15.9062C269.785 15.5938 269.52 15.2578 269.16 14.8984C268.816 14.5391 268.332 14.25 267.707 14.0312C267.098 13.7969 266.41 13.6797 265.645 13.6797C262.848 13.6797 261.449 15.7734 261.449 19.9609C261.449 21.9141 261.879 23.5625 262.738 24.9062C263.598 26.2344 264.816 26.8984 266.395 26.8984C267.551 26.8984 268.551 26.4766 269.395 25.6328C269.598 25.4297 269.777 25.1562 269.934 24.8125C270.105 24.4531 270.23 24.1562 270.309 23.9219C270.402 23.6719 270.457 23.5469 270.473 23.5469C271.113 23.5469 271.465 23.625 271.527 23.7812ZM282.074 27.2266C282.418 27.2266 282.77 27.1562 283.129 27.0156C283.488 26.8594 283.668 26.6562 283.668 26.4062C283.668 26.375 283.473 25.8516 283.082 24.8359L282.379 23.125C282.316 23.0625 282.262 23.0312 282.215 23.0312C281.918 23.0156 281.168 23.0078 279.965 23.0078C278.934 23.0078 278.145 23.0156 277.598 23.0312C277.535 23.0312 277.48 23.0703 277.434 23.1484C277.434 23.1484 277.176 23.7422 276.66 24.9297C276.348 25.6328 276.191 26.1094 276.191 26.3594C276.191 26.6094 276.332 26.8047 276.613 26.9453C276.895 27.0859 277.137 27.1719 277.34 27.2031C277.559 27.2188 277.746 27.2266 277.902 27.2266C277.949 27.2422 277.973 27.3672 277.973 27.6016C277.973 27.8359 277.957 28 277.926 28.0938C277.723 28.0781 277.309 28.0469 276.684 28C276.074 27.9375 275.574 27.9062 275.184 27.9062C274.793 27.9062 274.324 27.9375 273.777 28C273.23 28.0469 272.809 28.0781 272.512 28.0938C272.449 28.0312 272.418 27.9141 272.418 27.7422C272.418 27.4141 272.434 27.25 272.465 27.25C272.652 27.25 272.965 27.1719 273.402 27.0156C273.84 26.8438 274.113 26.6719 274.223 26.5C274.348 26.3125 274.473 26.0859 274.598 25.8203C274.738 25.5391 274.848 25.3125 274.926 25.1406L275.043 24.8594L280.223 12.9531C280.395 12.5469 280.684 12.3438 281.09 12.3438C281.324 12.3438 281.512 12.4453 281.652 12.6484L286.457 24.5312C286.754 25.25 287.012 25.8906 287.23 26.4531C287.324 26.7031 287.582 26.8984 288.004 27.0391C288.426 27.1641 288.746 27.2266 288.965 27.2266C289.027 27.2266 289.059 27.3594 289.059 27.625C289.059 27.8906 289.043 28.0469 289.012 28.0938C288.949 28.0938 288.465 28.0625 287.559 28C286.668 27.9375 286.02 27.9062 285.613 27.9062C285.504 27.9062 284.324 27.9688 282.074 28.0938C282.012 28.0312 281.98 27.875 281.98 27.625C281.98 27.3594 282.012 27.2266 282.074 27.2266ZM278.23 21.5312C278.699 21.5781 279.277 21.6016 279.965 21.6016C280.59 21.6016 281.145 21.5859 281.629 21.5547L281.699 21.4375L280.012 17.2422L278.184 21.4375C278.184 21.5 278.199 21.5312 278.23 21.5312ZM293.137 12.625C293.449 12.625 294.543 12.5781 296.418 12.4844C296.465 12.625 296.488 12.7656 296.488 12.9062C296.488 13.2031 296.457 13.3516 296.395 13.3516C296.254 13.3516 295.973 13.4219 295.551 13.5625C295.129 13.6875 294.902 13.8047 294.871 13.9141C294.762 14.3359 294.707 14.9609 294.707 15.7891V24.6719C294.707 25.4375 294.77 26 294.895 26.3594C294.973 26.6094 295.504 26.7344 296.488 26.7344H297.098C298.066 26.7344 298.941 26.5312 299.723 26.125C299.988 25.9844 300.285 25.7188 300.613 25.3281C300.957 24.9375 301.223 24.5 301.41 24.0156C301.441 23.9219 301.551 23.875 301.738 23.875C302.113 23.875 302.348 23.9219 302.441 24.0156C301.676 26.1719 301.254 27.5156 301.176 28.0469C300.285 28.0469 298.895 28.0312 297.004 28C295.113 27.9688 293.832 27.9531 293.16 27.9531L289.738 28.0938C289.676 28.0312 289.645 27.8984 289.645 27.6953C289.645 27.3828 289.676 27.2266 289.738 27.2266C289.926 27.2266 290.215 27.1719 290.605 27.0625C291.012 26.9531 291.238 26.8359 291.285 26.7109C291.379 26.3516 291.426 25.6641 291.426 24.6484V15.6953C291.426 14.7422 291.363 14.1562 291.238 13.9375C291.16 13.8125 290.941 13.6875 290.582 13.5625C290.223 13.4219 289.957 13.3516 289.785 13.3516C289.723 13.3516 289.691 13.2188 289.691 12.9531C289.691 12.6719 289.707 12.5156 289.738 12.4844C291.895 12.5781 293.027 12.625 293.137 12.625ZM308.676 16.5391C308.676 15.3672 309.191 14.3672 310.223 13.5391C311.27 12.7109 312.418 12.2969 313.668 12.2969C313.996 12.2969 314.332 12.3203 314.676 12.3672C315.035 12.4141 315.332 12.4609 315.566 12.5078C315.816 12.5547 316.152 12.6328 316.574 12.7422C317.012 12.8359 317.355 12.9062 317.605 12.9531C317.777 14.4688 317.863 15.7656 317.863 16.8438C317.801 17 317.684 17.0781 317.512 17.0781C317.059 17.0781 316.816 17.0234 316.785 16.9141C316.676 16.1328 316.34 15.3906 315.777 14.6875C315.215 13.9688 314.52 13.6094 313.691 13.6094C313.16 13.6094 312.707 13.7734 312.332 14.1016C311.973 14.4297 311.793 14.9531 311.793 15.6719C311.793 15.9844 311.871 16.2891 312.027 16.5859C312.184 16.8828 312.441 17.1875 312.801 17.5C313.176 17.8125 313.48 18.0469 313.715 18.2031C313.949 18.3594 314.332 18.6094 314.863 18.9531C315.004 19.0469 315.113 19.1172 315.191 19.1641C315.316 19.2422 315.574 19.3984 315.965 19.6328C316.355 19.8672 316.629 20.0469 316.785 20.1719C316.957 20.2812 317.184 20.4688 317.465 20.7344C317.762 21 317.973 21.2656 318.098 21.5312C318.238 21.7812 318.363 22.1172 318.473 22.5391C318.582 22.9453 318.637 23.3984 318.637 23.8984C318.637 25.1484 318.121 26.1875 317.09 27.0156C316.059 27.8281 314.871 28.2344 313.527 28.2344C312.293 28.2344 310.809 28.0312 309.074 27.625C308.949 27.125 308.824 26.4453 308.699 25.5859C308.59 24.7109 308.535 24.0938 308.535 23.7344C308.582 23.5781 308.723 23.5 308.957 23.5C309.441 23.5 309.691 23.5469 309.707 23.6406C309.832 24.3594 310.223 25.0859 310.879 25.8203C311.535 26.5391 312.262 26.8984 313.059 26.8984C314.605 26.8984 315.379 26.0469 315.379 24.3438C315.379 24.0781 315.309 23.8203 315.168 23.5703C315.027 23.3047 314.816 23.0469 314.535 22.7969C314.254 22.5469 314.004 22.3438 313.785 22.1875C313.566 22.0312 313.254 21.8281 312.848 21.5781C312.457 21.3281 312.207 21.1641 312.098 21.0859C312.02 21.0391 311.902 20.9609 311.746 20.8516C311.23 20.5078 310.84 20.2344 310.574 20.0312C310.309 19.8281 309.996 19.5469 309.637 19.1875C309.293 18.8281 309.043 18.4375 308.887 18.0156C308.746 17.5781 308.676 17.0859 308.676 16.5391ZM323.418 12.625C323.777 12.625 324.895 12.5781 326.77 12.4844C326.801 12.5469 326.809 12.7109 326.793 12.9766C326.793 13.2266 326.77 13.3516 326.723 13.3516C326.488 13.3516 326.223 13.3984 325.926 13.4922C325.645 13.5703 325.496 13.6875 325.48 13.8438C325.48 13.9688 325.543 14.1406 325.668 14.3594L328.012 18.5078C328.09 18.5859 328.168 18.5703 328.246 18.4609C328.699 17.8047 329.238 16.9375 329.863 15.8594C330.488 14.7812 330.801 14.1172 330.801 13.8672C330.801 13.5234 330.301 13.3516 329.301 13.3516C329.238 13.3516 329.199 13.2266 329.184 12.9766C329.184 12.7109 329.215 12.5469 329.277 12.4844C330.684 12.5781 331.629 12.625 332.113 12.625C332.52 12.625 333.402 12.5781 334.762 12.4844C334.809 12.625 334.832 12.7656 334.832 12.9062C334.832 13.1875 334.801 13.3281 334.738 13.3281C334.457 13.3281 334.137 13.3984 333.777 13.5391C333.418 13.6797 333.129 13.8906 332.91 14.1719C332.504 14.7188 331.715 15.9219 330.543 17.7812C329.387 19.6406 328.809 20.6719 328.809 20.875V24.6016C328.809 25.4766 328.871 26.1562 328.996 26.6406C329.027 26.75 329.238 26.875 329.629 27.0156C330.035 27.1562 330.309 27.2266 330.449 27.2266C330.512 27.2266 330.543 27.375 330.543 27.6719C330.543 27.8594 330.527 28 330.496 28.0938C330.387 28.0938 329.918 28.0625 329.09 28C328.262 27.9375 327.645 27.9062 327.238 27.9062C326.816 27.9062 326.199 27.9375 325.387 28C324.574 28.0469 324.059 28.0781 323.84 28.0938C323.777 28.0312 323.746 27.9062 323.746 27.7188C323.746 27.3906 323.77 27.2266 323.816 27.2266C323.988 27.2266 324.277 27.1641 324.684 27.0391C325.09 26.8984 325.316 26.7656 325.363 26.6406C325.473 26.2188 325.527 25.5859 325.527 24.7422V20.7578C325.527 20.6484 325.277 20.1484 324.777 19.2578C324.293 18.3672 323.809 17.5 323.324 16.6562L322.598 15.4141C322.082 14.4609 321.66 13.8906 321.332 13.7031C320.941 13.4688 320.527 13.3516 320.09 13.3516C320.027 13.3516 319.996 13.2266 319.996 12.9766C319.996 12.7109 320.027 12.5469 320.09 12.4844C320.355 12.5 320.707 12.5234 321.145 12.5547C321.582 12.5703 321.98 12.5859 322.34 12.6016C322.715 12.6172 323.074 12.625 323.418 12.625ZM335.676 16.5391C335.676 15.3672 336.191 14.3672 337.223 13.5391C338.27 12.7109 339.418 12.2969 340.668 12.2969C340.996 12.2969 341.332 12.3203 341.676 12.3672C342.035 12.4141 342.332 12.4609 342.566 12.5078C342.816 12.5547 343.152 12.6328 343.574 12.7422C344.012 12.8359 344.355 12.9062 344.605 12.9531C344.777 14.4688 344.863 15.7656 344.863 16.8438C344.801 17 344.684 17.0781 344.512 17.0781C344.059 17.0781 343.816 17.0234 343.785 16.9141C343.676 16.1328 343.34 15.3906 342.777 14.6875C342.215 13.9688 341.52 13.6094 340.691 13.6094C340.16 13.6094 339.707 13.7734 339.332 14.1016C338.973 14.4297 338.793 14.9531 338.793 15.6719C338.793 15.9844 338.871 16.2891 339.027 16.5859C339.184 16.8828 339.441 17.1875 339.801 17.5C340.176 17.8125 340.48 18.0469 340.715 18.2031C340.949 18.3594 341.332 18.6094 341.863 18.9531C342.004 19.0469 342.113 19.1172 342.191 19.1641C342.316 19.2422 342.574 19.3984 342.965 19.6328C343.355 19.8672 343.629 20.0469 343.785 20.1719C343.957 20.2812 344.184 20.4688 344.465 20.7344C344.762 21 344.973 21.2656 345.098 21.5312C345.238 21.7812 345.363 22.1172 345.473 22.5391C345.582 22.9453 345.637 23.3984 345.637 23.8984C345.637 25.1484 345.121 26.1875 344.09 27.0156C343.059 27.8281 341.871 28.2344 340.527 28.2344C339.293 28.2344 337.809 28.0312 336.074 27.625C335.949 27.125 335.824 26.4453 335.699 25.5859C335.59 24.7109 335.535 24.0938 335.535 23.7344C335.582 23.5781 335.723 23.5 335.957 23.5C336.441 23.5 336.691 23.5469 336.707 23.6406C336.832 24.3594 337.223 25.0859 337.879 25.8203C338.535 26.5391 339.262 26.8984 340.059 26.8984C341.605 26.8984 342.379 26.0469 342.379 24.3438C342.379 24.0781 342.309 23.8203 342.168 23.5703C342.027 23.3047 341.816 23.0469 341.535 22.7969C341.254 22.5469 341.004 22.3438 340.785 22.1875C340.566 22.0312 340.254 21.8281 339.848 21.5781C339.457 21.3281 339.207 21.1641 339.098 21.0859C339.02 21.0391 338.902 20.9609 338.746 20.8516C338.23 20.5078 337.84 20.2344 337.574 20.0312C337.309 19.8281 336.996 19.5469 336.637 19.1875C336.293 18.8281 336.043 18.4375 335.887 18.0156C335.746 17.5781 335.676 17.0859 335.676 16.5391ZM351.449 12.5312C352.512 12.5781 353.371 12.6016 354.027 12.6016C354.684 12.6016 355.543 12.5781 356.605 12.5312C357.668 12.4844 358.527 12.4609 359.184 12.4609C359.574 12.4609 360.113 12.375 360.801 12.2031L361.246 16.0469C361.137 16.1562 360.91 16.2109 360.566 16.2109C360.426 16.2109 360.348 16.1719 360.332 16.0938C359.941 14.5469 359.105 13.7734 357.824 13.7734C356.559 13.7734 355.895 13.9141 355.832 14.1953C355.707 14.6328 355.645 15.3281 355.645 16.2812V24.7422C355.645 25.5234 355.707 26.1562 355.832 26.6406C355.863 26.75 356.074 26.875 356.465 27.0156C356.871 27.1562 357.145 27.2266 357.285 27.2266C357.348 27.2266 357.379 27.375 357.379 27.6719C357.379 27.8594 357.363 28 357.332 28.0938C357.223 28.0938 356.754 28.0625 355.926 28C355.098 27.9375 354.48 27.9062 354.074 27.9062C353.652 27.9062 353.035 27.9375 352.223 28C351.41 28.0469 350.895 28.0781 350.676 28.0938C350.613 28.0312 350.582 27.9062 350.582 27.7188C350.582 27.3906 350.605 27.2266 350.652 27.2266C350.824 27.2266 351.113 27.1641 351.52 27.0391C351.926 26.8984 352.152 26.7656 352.199 26.6406C352.309 26.2188 352.363 25.6172 352.363 24.8359V16.3516C352.363 15.1328 352.301 14.4141 352.176 14.1953C352.129 14.1016 352.082 14.0391 352.035 14.0078C352.004 13.9609 351.84 13.9141 351.543 13.8672C351.246 13.8047 350.816 13.7734 350.254 13.7734C349.613 13.7734 349.09 13.9531 348.684 14.3125C348.277 14.6562 347.965 15.2422 347.746 16.0703C347.73 16.1484 347.652 16.1875 347.512 16.1875C347.168 16.1875 346.941 16.1328 346.832 16.0234L347.277 12.2031C347.965 12.375 348.504 12.4609 348.895 12.4609C349.551 12.4609 350.402 12.4844 351.449 12.5312ZM365.98 12.5547C366.668 12.5547 367.879 12.5391 369.613 12.5078C371.348 12.4609 372.66 12.4375 373.551 12.4375C373.566 12.5938 373.793 13.75 374.23 15.9062C374.152 15.9844 373.973 16.0234 373.691 16.0234C373.52 16.0234 373.41 15.9688 373.363 15.8594C373.066 15.2656 372.598 14.7578 371.957 14.3359C371.316 13.9141 370.691 13.7031 370.082 13.7031H369.191C368.207 13.7031 367.699 13.8047 367.668 14.0078C367.59 14.3828 367.551 14.9922 367.551 15.8359V19.4453C367.551 19.5391 367.887 19.5859 368.559 19.5859H369.801C370.77 19.5859 371.301 19.5547 371.395 19.4922C371.473 19.4297 371.535 19.2031 371.582 18.8125C371.613 18.5781 371.66 18.3516 371.723 18.1328C371.738 18.0234 371.855 17.9688 372.074 17.9688C372.34 17.9688 372.512 18.0078 372.59 18.0859V22.5156C372.527 22.5781 372.363 22.6094 372.098 22.6094C371.895 22.6094 371.77 22.5469 371.723 22.4219C371.66 22.2031 371.605 22.0156 371.559 21.8594C371.512 21.7031 371.473 21.5859 371.441 21.5078C371.41 21.4297 371.371 21.3594 371.324 21.2969C371.293 21.2344 371.27 21.1953 371.254 21.1797C371.238 21.1641 371.207 21.1484 371.16 21.1328C371.113 21.1016 371.082 21.0781 371.066 21.0625C370.863 20.9375 370.254 20.875 369.238 20.875C368.113 20.875 367.551 20.9453 367.551 21.0859V24.6953C367.551 25.4453 367.613 26 367.738 26.3594C367.816 26.6094 368.348 26.7344 369.332 26.7344H369.941C370.91 26.7344 371.785 26.5312 372.566 26.125C372.832 25.9844 373.129 25.7188 373.457 25.3281C373.801 24.9375 374.066 24.5 374.254 24.0156C374.27 23.9219 374.379 23.875 374.582 23.875C374.957 23.875 375.191 23.9219 375.285 24.0156C374.52 26.1719 374.098 27.5156 374.02 28.0469C373.223 28.0469 371.957 28.0312 370.223 28C368.488 27.9688 367.082 27.9531 366.004 27.9531L362.582 28.0938C362.52 28.0312 362.488 27.8984 362.488 27.6953C362.488 27.3828 362.52 27.2266 362.582 27.2266C362.77 27.2266 363.059 27.1719 363.449 27.0625C363.855 26.9531 364.082 26.8359 364.129 26.7109C364.223 26.3516 364.27 25.6641 364.27 24.6484V15.7891C364.27 14.9297 364.223 14.3203 364.129 13.9609C364.082 13.8359 363.848 13.6953 363.426 13.5391C363.02 13.3828 362.73 13.3047 362.559 13.3047C362.496 13.3047 362.465 13.1641 362.465 12.8828C362.465 12.6328 362.488 12.4844 362.535 12.4375C363.785 12.5156 364.934 12.5547 365.98 12.5547ZM380.324 12.625C380.637 12.625 381.074 12.6094 381.637 12.5781C382.215 12.5312 382.598 12.5 382.785 12.4844C382.941 12.9844 383.582 14.4609 384.707 16.9141C385.832 19.3516 386.668 21.25 387.215 22.6094H387.262C387.293 22.6094 387.309 22.6016 387.309 22.5859C388.512 19.6016 389.465 17.1406 390.168 15.2031L390.941 12.5781C391.223 12.6094 391.855 12.625 392.84 12.625C392.934 12.625 393.918 12.5781 395.793 12.4844C395.855 12.5781 395.887 12.7031 395.887 12.8594C395.887 13.1875 395.848 13.3516 395.77 13.3516H395.746C395.355 13.3516 395.027 13.4453 394.762 13.6328C394.527 13.8047 394.418 14.125 394.434 14.5938C394.465 15.2188 394.543 16.8359 394.668 19.4453C394.793 22.0547 394.871 23.7188 394.902 24.4375C394.949 25.3906 395.066 26.1094 395.254 26.5938C395.316 26.7344 395.52 26.875 395.863 27.0156C396.223 27.1562 396.473 27.2266 396.613 27.2266C396.676 27.2266 396.707 27.3828 396.707 27.6953C396.707 27.8672 396.691 28 396.66 28.0938C396.488 28.0781 396.051 28.0469 395.348 28C394.645 27.9375 394.09 27.9062 393.684 27.9062C393.262 27.9062 392.645 27.9375 391.832 28C391.02 28.0469 390.504 28.0781 390.285 28.0938C390.207 28.0156 390.168 27.8906 390.168 27.7188C390.168 27.3906 390.191 27.2266 390.238 27.2266C390.41 27.2266 390.676 27.1562 391.035 27.0156C391.395 26.875 391.613 26.7266 391.691 26.5703C391.816 26.3359 391.879 26.1172 391.879 25.9141C391.879 25.5547 391.863 25.0938 391.832 24.5312L391.645 18.5781C391.582 17.5312 391.52 17.0078 391.457 17.0078C391.426 17.0078 391.387 17.0625 391.34 17.1719L387.285 27.2734C387.223 27.4297 387.098 27.6016 386.91 27.7891C386.723 27.9609 386.535 28.0469 386.348 28.0469C386.301 28.0469 386.23 28.0312 386.137 28L380.98 16.4219L380.582 25.4453C380.582 25.8984 380.59 26.1797 380.605 26.2891C380.652 26.4922 380.996 26.7031 381.637 26.9219C382.277 27.125 382.699 27.2266 382.902 27.2266C382.965 27.2266 382.996 27.3828 382.996 27.6953C382.996 27.8672 382.98 28 382.949 28.0938C382.824 28.0938 382.355 28.0625 381.543 28C380.73 27.9375 380.121 27.9062 379.715 27.9062C379.309 27.9062 378.746 27.9375 378.027 28C377.309 28.0469 376.824 28.0781 376.574 28.0938C376.512 28.0312 376.48 27.8984 376.48 27.6953C376.48 27.3984 376.504 27.25 376.551 27.25C376.832 27.25 377.285 27.1328 377.91 26.8984C378.551 26.6641 378.887 26.3828 378.918 26.0547C378.949 25.6953 378.98 25.3203 379.012 24.9297C379.059 24.1172 379.113 22.9219 379.176 21.3438C379.238 19.75 379.293 18.2188 379.34 16.75C379.387 15.2812 379.418 14.4453 379.434 14.2422C379.434 14.0703 379.41 13.9297 379.363 13.8203C379.316 13.6953 379.066 13.5859 378.613 13.4922C378.16 13.3828 377.832 13.3281 377.629 13.3281C377.566 13.3281 377.535 13.1641 377.535 12.8359C377.535 12.6641 377.566 12.5469 377.629 12.4844C377.848 12.5 378.246 12.5312 378.824 12.5781C379.418 12.6094 379.918 12.625 380.324 12.625ZM398.113 16.5391C398.113 15.3672 398.629 14.3672 399.66 13.5391C400.707 12.7109 401.855 12.2969 403.105 12.2969C403.434 12.2969 403.77 12.3203 404.113 12.3672C404.473 12.4141 404.77 12.4609 405.004 12.5078C405.254 12.5547 405.59 12.6328 406.012 12.7422C406.449 12.8359 406.793 12.9062 407.043 12.9531C407.215 14.4688 407.301 15.7656 407.301 16.8438C407.238 17 407.121 17.0781 406.949 17.0781C406.496 17.0781 406.254 17.0234 406.223 16.9141C406.113 16.1328 405.777 15.3906 405.215 14.6875C404.652 13.9688 403.957 13.6094 403.129 13.6094C402.598 13.6094 402.145 13.7734 401.77 14.1016C401.41 14.4297 401.23 14.9531 401.23 15.6719C401.23 15.9844 401.309 16.2891 401.465 16.5859C401.621 16.8828 401.879 17.1875 402.238 17.5C402.613 17.8125 402.918 18.0469 403.152 18.2031C403.387 18.3594 403.77 18.6094 404.301 18.9531C404.441 19.0469 404.551 19.1172 404.629 19.1641C404.754 19.2422 405.012 19.3984 405.402 19.6328C405.793 19.8672 406.066 20.0469 406.223 20.1719C406.395 20.2812 406.621 20.4688 406.902 20.7344C407.199 21 407.41 21.2656 407.535 21.5312C407.676 21.7812 407.801 22.1172 407.91 22.5391C408.02 22.9453 408.074 23.3984 408.074 23.8984C408.074 25.1484 407.559 26.1875 406.527 27.0156C405.496 27.8281 404.309 28.2344 402.965 28.2344C401.73 28.2344 400.246 28.0312 398.512 27.625C398.387 27.125 398.262 26.4453 398.137 25.5859C398.027 24.7109 397.973 24.0938 397.973 23.7344C398.02 23.5781 398.16 23.5 398.395 23.5C398.879 23.5 399.129 23.5469 399.145 23.6406C399.27 24.3594 399.66 25.0859 400.316 25.8203C400.973 26.5391 401.699 26.8984 402.496 26.8984C404.043 26.8984 404.816 26.0469 404.816 24.3438C404.816 24.0781 404.746 23.8203 404.605 23.5703C404.465 23.3047 404.254 23.0469 403.973 22.7969C403.691 22.5469 403.441 22.3438 403.223 22.1875C403.004 22.0312 402.691 21.8281 402.285 21.5781C401.895 21.3281 401.645 21.1641 401.535 21.0859C401.457 21.0391 401.34 20.9609 401.184 20.8516C400.668 20.5078 400.277 20.2344 400.012 20.0312C399.746 19.8281 399.434 19.5469 399.074 19.1875C398.73 18.8281 398.48 18.4375 398.324 18.0156C398.184 17.5781 398.113 17.0859 398.113 16.5391Z" fill="#1D1D1F"/>
<path d="M86.4558 40.848V52H84.9998V46.944H79.3198V52H77.8638V40.848H79.3198V45.744H84.9998V40.848H86.4558ZM97.182 47.28C97.182 47.5573 97.166 47.8507 97.134 48.16H90.126C90.1793 49.024 90.4726 49.7013 91.006 50.192C91.55 50.672 92.206 50.912 92.974 50.912C93.6033 50.912 94.126 50.768 94.542 50.48C94.9686 50.1813 95.2673 49.7867 95.438 49.296H97.006C96.7713 50.1387 96.302 50.8267 95.598 51.36C94.894 51.8827 94.0193 52.144 92.974 52.144C92.142 52.144 91.3953 51.9573 90.734 51.584C90.0833 51.2107 89.5713 50.6827 89.198 50C88.8246 49.3067 88.638 48.5067 88.638 47.6C88.638 46.6933 88.8193 45.8987 89.182 45.216C89.5446 44.5333 90.0513 44.0107 90.702 43.648C91.3633 43.2747 92.1206 43.088 92.974 43.088C93.806 43.088 94.542 43.2693 95.182 43.632C95.822 43.9947 96.3126 44.496 96.654 45.136C97.006 45.7653 97.182 46.48 97.182 47.28ZM95.678 46.976C95.678 46.4213 95.5553 45.9467 95.31 45.552C95.0646 45.1467 94.7286 44.8427 94.302 44.64C93.886 44.4267 93.422 44.32 92.91 44.32C92.174 44.32 91.5446 44.5547 91.022 45.024C90.51 45.4933 90.2166 46.144 90.142 46.976H95.678ZM98.7998 47.584C98.7998 46.688 98.9812 45.904 99.3438 45.232C99.7065 44.5493 100.203 44.0213 100.832 43.648C101.472 43.2747 102.181 43.088 102.96 43.088C103.728 43.088 104.395 43.2533 104.96 43.584C105.525 43.9147 105.947 44.3307 106.224 44.832V43.232H107.696V52H106.224V50.368C105.936 50.88 105.504 51.3067 104.928 51.648C104.363 51.9787 103.701 52.144 102.944 52.144C102.165 52.144 101.461 51.952 100.832 51.568C100.203 51.184 99.7065 50.6453 99.3438 49.952C98.9812 49.2587 98.7998 48.4693 98.7998 47.584ZM106.224 47.6C106.224 46.9387 106.091 46.3627 105.824 45.872C105.557 45.3813 105.195 45.008 104.736 44.752C104.288 44.4853 103.792 44.352 103.248 44.352C102.704 44.352 102.208 44.48 101.76 44.736C101.312 44.992 100.955 45.3653 100.688 45.856C100.421 46.3467 100.288 46.9227 100.288 47.584C100.288 48.256 100.421 48.8427 100.688 49.344C100.955 49.8347 101.312 50.2133 101.76 50.48C102.208 50.736 102.704 50.864 103.248 50.864C103.792 50.864 104.288 50.736 104.736 50.48C105.195 50.2133 105.557 49.8347 105.824 49.344C106.091 48.8427 106.224 48.2613 106.224 47.6ZM112.172 44.432V49.6C112.172 50.0267 112.263 50.3307 112.444 50.512C112.626 50.6827 112.94 50.768 113.388 50.768H114.46V52H113.148C112.338 52 111.73 51.8133 111.324 51.44C110.919 51.0667 110.716 50.4533 110.716 49.6V44.432H109.58V43.232H110.716V41.024H112.172V43.232H114.46V44.432H112.172ZM117.216 41.808C116.939 41.808 116.704 41.712 116.512 41.52C116.32 41.328 116.224 41.0933 116.224 40.816C116.224 40.5387 116.32 40.304 116.512 40.112C116.704 39.92 116.939 39.824 117.216 39.824C117.483 39.824 117.707 39.92 117.888 40.112C118.08 40.304 118.176 40.5387 118.176 40.816C118.176 41.0933 118.08 41.328 117.888 41.52C117.707 41.712 117.483 41.808 117.216 41.808ZM117.92 43.232V52H116.464V43.232H117.92ZM124.914 43.072C125.981 43.072 126.845 43.3973 127.506 44.048C128.167 44.688 128.498 45.616 128.498 46.832V52H127.058V47.04C127.058 46.1653 126.839 45.4987 126.402 45.04C125.965 44.5707 125.367 44.336 124.61 44.336C123.842 44.336 123.229 44.576 122.77 45.056C122.322 45.536 122.098 46.2347 122.098 47.152V52H120.642V43.232H122.098V44.48C122.386 44.032 122.775 43.6853 123.266 43.44C123.767 43.1947 124.317 43.072 124.914 43.072ZM134.732 43.088C135.49 43.088 136.151 43.2533 136.716 43.584C137.292 43.9147 137.719 44.3307 137.996 44.832V43.232H139.468V52.192C139.468 52.992 139.298 53.7013 138.956 54.32C138.615 54.9493 138.124 55.44 137.484 55.792C136.855 56.144 136.119 56.32 135.276 56.32C134.124 56.32 133.164 56.048 132.396 55.504C131.628 54.96 131.175 54.2187 131.036 53.28H132.476C132.636 53.8133 132.967 54.24 133.468 54.56C133.97 54.8907 134.572 55.056 135.276 55.056C136.076 55.056 136.727 54.8053 137.228 54.304C137.74 53.8027 137.996 53.0987 137.996 52.192V50.352C137.708 50.864 137.282 51.2907 136.716 51.632C136.151 51.9733 135.49 52.144 134.732 52.144C133.954 52.144 133.244 51.952 132.604 51.568C131.975 51.184 131.479 50.6453 131.116 49.952C130.754 49.2587 130.572 48.4693 130.572 47.584C130.572 46.688 130.754 45.904 131.116 45.232C131.479 44.5493 131.975 44.0213 132.604 43.648C133.244 43.2747 133.954 43.088 134.732 43.088ZM137.996 47.6C137.996 46.9387 137.863 46.3627 137.596 45.872C137.33 45.3813 136.967 45.008 136.508 44.752C136.06 44.4853 135.564 44.352 135.02 44.352C134.476 44.352 133.98 44.48 133.532 44.736C133.084 44.992 132.727 45.3653 132.46 45.856C132.194 46.3467 132.06 46.9227 132.06 47.584C132.06 48.256 132.194 48.8427 132.46 49.344C132.727 49.8347 133.084 50.2133 133.532 50.48C133.98 50.736 134.476 50.864 135.02 50.864C135.564 50.864 136.06 50.736 136.508 50.48C136.967 50.2133 137.33 49.8347 137.596 49.344C137.863 48.8427 137.996 48.2613 137.996 47.6Z" fill="#CF0004"/>
<path d="M168.049 49.52H163.185L162.289 52H160.753L164.785 40.912H166.465L170.481 52H168.945L168.049 49.52ZM167.633 48.336L165.617 42.704L163.601 48.336H167.633ZM173.23 41.808C172.953 41.808 172.718 41.712 172.526 41.52C172.334 41.328 172.238 41.0933 172.238 40.816C172.238 40.5387 172.334 40.304 172.526 40.112C172.718 39.92 172.953 39.824 173.23 39.824C173.497 39.824 173.721 39.92 173.902 40.112C174.094 40.304 174.19 40.5387 174.19 40.816C174.19 41.0933 174.094 41.328 173.902 41.52C173.721 41.712 173.497 41.808 173.23 41.808ZM173.934 43.232V52H172.478V43.232H173.934ZM178.112 44.656C178.368 44.1547 178.731 43.7653 179.2 43.488C179.68 43.2107 180.261 43.072 180.944 43.072V44.576H180.56C178.928 44.576 178.112 45.4613 178.112 47.232V52H176.656V43.232H178.112V44.656ZM186.826 46.416C186.826 45.328 187.072 44.352 187.562 43.488C188.053 42.6133 188.72 41.9307 189.562 41.44C190.416 40.9493 191.36 40.704 192.394 40.704C193.61 40.704 194.672 40.9973 195.578 41.584C196.485 42.1707 197.146 43.0027 197.562 44.08H195.818C195.509 43.408 195.061 42.8907 194.474 42.528C193.898 42.1653 193.205 41.984 192.394 41.984C191.616 41.984 190.917 42.1653 190.298 42.528C189.68 42.8907 189.194 43.408 188.842 44.08C188.49 44.7413 188.314 45.52 188.314 46.416C188.314 47.3013 188.49 48.08 188.842 48.752C189.194 49.4133 189.68 49.9253 190.298 50.288C190.917 50.6507 191.616 50.832 192.394 50.832C193.205 50.832 193.898 50.656 194.474 50.304C195.061 49.9413 195.509 49.424 195.818 48.752H197.562C197.146 49.8187 196.485 50.6453 195.578 51.232C194.672 51.808 193.61 52.096 192.394 52.096C191.36 52.096 190.416 51.856 189.562 51.376C188.72 50.8853 188.053 50.208 187.562 49.344C187.072 48.48 186.826 47.504 186.826 46.416ZM203.794 52.144C202.972 52.144 202.226 51.9573 201.554 51.584C200.892 51.2107 200.37 50.6827 199.986 50C199.612 49.3067 199.426 48.5067 199.426 47.6C199.426 46.704 199.618 45.9147 200.002 45.232C200.396 44.5387 200.93 44.0107 201.602 43.648C202.274 43.2747 203.026 43.088 203.858 43.088C204.69 43.088 205.442 43.2747 206.114 43.648C206.786 44.0107 207.314 44.5333 207.698 45.216C208.092 45.8987 208.29 46.6933 208.29 47.6C208.29 48.5067 208.087 49.3067 207.682 50C207.287 50.6827 206.748 51.2107 206.066 51.584C205.383 51.9573 204.626 52.144 203.794 52.144ZM203.794 50.864C204.316 50.864 204.807 50.7413 205.266 50.496C205.724 50.2507 206.092 49.8827 206.37 49.392C206.658 48.9013 206.802 48.304 206.802 47.6C206.802 46.896 206.663 46.2987 206.386 45.808C206.108 45.3173 205.746 44.9547 205.298 44.72C204.85 44.4747 204.364 44.352 203.842 44.352C203.308 44.352 202.818 44.4747 202.37 44.72C201.932 44.9547 201.58 45.3173 201.314 45.808C201.047 46.2987 200.914 46.896 200.914 47.6C200.914 48.3147 201.042 48.9173 201.298 49.408C201.564 49.8987 201.916 50.2667 202.354 50.512C202.791 50.7467 203.271 50.864 203.794 50.864ZM214.716 43.072C215.783 43.072 216.647 43.3973 217.308 44.048C217.969 44.688 218.3 45.616 218.3 46.832V52H216.86V47.04C216.86 46.1653 216.641 45.4987 216.204 45.04C215.767 44.5707 215.169 44.336 214.412 44.336C213.644 44.336 213.031 44.576 212.572 45.056C212.124 45.536 211.9 46.2347 211.9 47.152V52H210.444V43.232H211.9V44.48C212.188 44.032 212.577 43.6853 213.068 43.44C213.569 43.1947 214.119 43.072 214.716 43.072ZM220.374 47.584C220.374 46.688 220.556 45.904 220.918 45.232C221.281 44.5493 221.777 44.0213 222.406 43.648C223.046 43.2747 223.761 43.088 224.55 43.088C225.233 43.088 225.868 43.248 226.454 43.568C227.041 43.8773 227.489 44.288 227.798 44.8V40.16H229.27V52H227.798V50.352C227.51 50.8747 227.084 51.3067 226.518 51.648C225.953 51.9787 225.292 52.144 224.534 52.144C223.756 52.144 223.046 51.952 222.406 51.568C221.777 51.184 221.281 50.6453 220.918 49.952C220.556 49.2587 220.374 48.4693 220.374 47.584ZM227.798 47.6C227.798 46.9387 227.665 46.3627 227.398 45.872C227.132 45.3813 226.769 45.008 226.31 44.752C225.862 44.4853 225.366 44.352 224.822 44.352C224.278 44.352 223.782 44.48 223.334 44.736C222.886 44.992 222.529 45.3653 222.262 45.856C221.996 46.3467 221.862 46.9227 221.862 47.584C221.862 48.256 221.996 48.8427 222.262 49.344C222.529 49.8347 222.886 50.2133 223.334 50.48C223.782 50.736 224.278 50.864 224.822 50.864C225.366 50.864 225.862 50.736 226.31 50.48C226.769 50.2133 227.132 49.8347 227.398 49.344C227.665 48.8427 227.798 48.2613 227.798 47.6ZM232.723 41.808C232.446 41.808 232.211 41.712 232.019 41.52C231.827 41.328 231.731 41.0933 231.731 40.816C231.731 40.5387 231.827 40.304 232.019 40.112C232.211 39.92 232.446 39.824 232.723 39.824C232.99 39.824 233.214 39.92 233.395 40.112C233.587 40.304 233.683 40.5387 233.683 40.816C233.683 41.0933 233.587 41.328 233.395 41.52C233.214 41.712 232.99 41.808 232.723 41.808ZM233.427 43.232V52H231.971V43.232H233.427ZM237.924 44.432V49.6C237.924 50.0267 238.015 50.3307 238.196 50.512C238.378 50.6827 238.692 50.768 239.14 50.768H240.212V52H238.9C238.09 52 237.482 51.8133 237.076 51.44C236.671 51.0667 236.468 50.4533 236.468 49.6V44.432H235.332V43.232H236.468V41.024H237.924V43.232H240.212V44.432H237.924ZM242.968 41.808C242.691 41.808 242.456 41.712 242.264 41.52C242.072 41.328 241.976 41.0933 241.976 40.816C241.976 40.5387 242.072 40.304 242.264 40.112C242.456 39.92 242.691 39.824 242.968 39.824C243.235 39.824 243.459 39.92 243.64 40.112C243.832 40.304 243.928 40.5387 243.928 40.816C243.928 41.0933 243.832 41.328 243.64 41.52C243.459 41.712 243.235 41.808 242.968 41.808ZM243.672 43.232V52H242.216V43.232H243.672ZM250.218 52.144C249.397 52.144 248.65 51.9573 247.978 51.584C247.317 51.2107 246.794 50.6827 246.41 50C246.037 49.3067 245.85 48.5067 245.85 47.6C245.85 46.704 246.042 45.9147 246.426 45.232C246.821 44.5387 247.354 44.0107 248.026 43.648C248.698 43.2747 249.45 43.088 250.282 43.088C251.114 43.088 251.866 43.2747 252.538 43.648C253.21 44.0107 253.738 44.5333 254.122 45.216C254.517 45.8987 254.714 46.6933 254.714 47.6C254.714 48.5067 254.511 49.3067 254.106 50C253.711 50.6827 253.173 51.2107 252.49 51.584C251.807 51.9573 251.05 52.144 250.218 52.144ZM250.218 50.864C250.741 50.864 251.231 50.7413 251.69 50.496C252.149 50.2507 252.517 49.8827 252.794 49.392C253.082 48.9013 253.226 48.304 253.226 47.6C253.226 46.896 253.087 46.2987 252.81 45.808C252.533 45.3173 252.17 44.9547 251.722 44.72C251.274 44.4747 250.789 44.352 250.266 44.352C249.733 44.352 249.242 44.4747 248.794 44.72C248.357 44.9547 248.005 45.3173 247.738 45.808C247.471 46.2987 247.338 46.896 247.338 47.6C247.338 48.3147 247.466 48.9173 247.722 49.408C247.989 49.8987 248.341 50.2667 248.778 50.512C249.215 50.7467 249.695 50.864 250.218 50.864ZM261.14 43.072C262.207 43.072 263.071 43.3973 263.732 44.048C264.394 44.688 264.724 45.616 264.724 46.832V52H263.284V47.04C263.284 46.1653 263.066 45.4987 262.628 45.04C262.191 44.5707 261.594 44.336 260.836 44.336C260.068 44.336 259.455 44.576 258.996 45.056C258.548 45.536 258.324 46.2347 258.324 47.152V52H256.868V43.232H258.324V44.48C258.612 44.032 259.002 43.6853 259.492 43.44C259.994 43.1947 260.543 43.072 261.14 43.072ZM268.095 41.808C267.817 41.808 267.583 41.712 267.391 41.52C267.199 41.328 267.103 41.0933 267.103 40.816C267.103 40.5387 267.199 40.304 267.391 40.112C267.583 39.92 267.817 39.824 268.095 39.824C268.361 39.824 268.585 39.92 268.767 40.112C268.959 40.304 269.055 40.5387 269.055 40.816C269.055 41.0933 268.959 41.328 268.767 41.52C268.585 41.712 268.361 41.808 268.095 41.808ZM268.799 43.232V52H267.343V43.232H268.799ZM275.792 43.072C276.859 43.072 277.723 43.3973 278.384 44.048C279.046 44.688 279.376 45.616 279.376 46.832V52H277.936V47.04C277.936 46.1653 277.718 45.4987 277.28 45.04C276.843 44.5707 276.246 44.336 275.488 44.336C274.72 44.336 274.107 44.576 273.648 45.056C273.2 45.536 272.976 46.2347 272.976 47.152V52H271.52V43.232H272.976V44.48C273.264 44.032 273.654 43.6853 274.144 43.44C274.646 43.1947 275.195 43.072 275.792 43.072ZM285.611 43.088C286.368 43.088 287.029 43.2533 287.595 43.584C288.171 43.9147 288.597 44.3307 288.875 44.832V43.232H290.347V52.192C290.347 52.992 290.176 53.7013 289.835 54.32C289.493 54.9493 289.003 55.44 288.363 55.792C287.733 56.144 286.997 56.32 286.155 56.32C285.003 56.32 284.043 56.048 283.275 55.504C282.507 54.96 282.053 54.2187 281.915 53.28H283.355C283.515 53.8133 283.845 54.24 284.347 54.56C284.848 54.8907 285.451 55.056 286.155 55.056C286.955 55.056 287.605 54.8053 288.107 54.304C288.619 53.8027 288.875 53.0987 288.875 52.192V50.352C288.587 50.864 288.16 51.2907 287.595 51.632C287.029 51.9733 286.368 52.144 285.611 52.144C284.832 52.144 284.123 51.952 283.483 51.568C282.853 51.184 282.357 50.6453 281.995 49.952C281.632 49.2587 281.451 48.4693 281.451 47.584C281.451 46.688 281.632 45.904 281.995 45.232C282.357 44.5493 282.853 44.0213 283.483 43.648C284.123 43.2747 284.832 43.088 285.611 43.088ZM288.875 47.6C288.875 46.9387 288.741 46.3627 288.475 45.872C288.208 45.3813 287.845 45.008 287.387 44.752C286.939 44.4853 286.443 44.352 285.899 44.352C285.355 44.352 284.859 44.48 284.411 44.736C283.963 44.992 283.605 45.3653 283.339 45.856C283.072 46.3467 282.939 46.9227 282.939 47.584C282.939 48.256 283.072 48.8427 283.339 49.344C283.605 49.8347 283.963 50.2133 284.411 50.48C284.859 50.736 285.355 50.864 285.899 50.864C286.443 50.864 286.939 50.736 287.387 50.48C287.845 50.2133 288.208 49.8347 288.475 49.344C288.741 48.8427 288.875 48.2613 288.875 47.6Z" fill="#003CCD"/>
<path d="M316.603 52L313.947 47.44H312.187V52H310.731V40.848H314.331C315.173 40.848 315.883 40.992 316.459 41.28C317.045 41.568 317.483 41.9573 317.771 42.448C318.059 42.9387 318.203 43.4987 318.203 44.128C318.203 44.896 317.979 45.5733 317.531 46.16C317.093 46.7467 316.432 47.136 315.547 47.328L318.347 52H316.603ZM312.187 46.272H314.331C315.12 46.272 315.712 46.08 316.107 45.696C316.501 45.3013 316.699 44.7787 316.699 44.128C316.699 43.4667 316.501 42.9547 316.107 42.592C315.723 42.2293 315.131 42.048 314.331 42.048H312.187V46.272ZM328.705 47.28C328.705 47.5573 328.689 47.8507 328.657 48.16H321.649C321.702 49.024 321.996 49.7013 322.529 50.192C323.073 50.672 323.729 50.912 324.497 50.912C325.126 50.912 325.649 50.768 326.065 50.48C326.492 50.1813 326.79 49.7867 326.961 49.296H328.529C328.294 50.1387 327.825 50.8267 327.121 51.36C326.417 51.8827 325.542 52.144 324.497 52.144C323.665 52.144 322.918 51.9573 322.257 51.584C321.606 51.2107 321.094 50.6827 320.721 50C320.348 49.3067 320.161 48.5067 320.161 47.6C320.161 46.6933 320.342 45.8987 320.705 45.216C321.068 44.5333 321.574 44.0107 322.225 43.648C322.886 43.2747 323.644 43.088 324.497 43.088C325.329 43.088 326.065 43.2693 326.705 43.632C327.345 43.9947 327.836 44.496 328.177 45.136C328.529 45.7653 328.705 46.48 328.705 47.28ZM327.201 46.976C327.201 46.4213 327.078 45.9467 326.833 45.552C326.588 45.1467 326.252 44.8427 325.825 44.64C325.409 44.4267 324.945 44.32 324.433 44.32C323.697 44.32 323.068 44.5547 322.545 45.024C322.033 45.4933 321.74 46.144 321.665 46.976H327.201ZM334.435 44.432H332.595V52H331.139V44.432H330.003V43.232H331.139V42.608C331.139 41.6267 331.39 40.912 331.891 40.464C332.403 40.0053 333.219 39.776 334.339 39.776V40.992C333.699 40.992 333.246 41.12 332.979 41.376C332.723 41.6213 332.595 42.032 332.595 42.608V43.232H334.435V44.432ZM337.829 44.656C338.085 44.1547 338.447 43.7653 338.917 43.488C339.397 43.2107 339.978 43.072 340.661 43.072V44.576H340.277C338.645 44.576 337.829 45.4613 337.829 47.232V52H336.373V43.232H337.829V44.656ZM343.333 41.808C343.056 41.808 342.821 41.712 342.629 41.52C342.437 41.328 342.341 41.0933 342.341 40.816C342.341 40.5387 342.437 40.304 342.629 40.112C342.821 39.92 343.056 39.824 343.333 39.824C343.6 39.824 343.824 39.92 344.005 40.112C344.197 40.304 344.293 40.5387 344.293 40.816C344.293 41.0933 344.197 41.328 344.005 41.52C343.824 41.712 343.6 41.808 343.333 41.808ZM344.037 43.232V52H342.581V43.232H344.037ZM350.375 43.088C351.132 43.088 351.793 43.2533 352.359 43.584C352.935 43.9147 353.361 44.3307 353.639 44.832V43.232H355.111V52.192C355.111 52.992 354.94 53.7013 354.599 54.32C354.257 54.9493 353.767 55.44 353.127 55.792C352.497 56.144 351.761 56.32 350.919 56.32C349.767 56.32 348.807 56.048 348.039 55.504C347.271 54.96 346.817 54.2187 346.679 53.28H348.119C348.279 53.8133 348.609 54.24 349.111 54.56C349.612 54.8907 350.215 55.056 350.919 55.056C351.719 55.056 352.369 54.8053 352.871 54.304C353.383 53.8027 353.639 53.0987 353.639 52.192V50.352C353.351 50.864 352.924 51.2907 352.359 51.632C351.793 51.9733 351.132 52.144 350.375 52.144C349.596 52.144 348.887 51.952 348.247 51.568C347.617 51.184 347.121 50.6453 346.759 49.952C346.396 49.2587 346.215 48.4693 346.215 47.584C346.215 46.688 346.396 45.904 346.759 45.232C347.121 44.5493 347.617 44.0213 348.247 43.648C348.887 43.2747 349.596 43.088 350.375 43.088ZM353.639 47.6C353.639 46.9387 353.505 46.3627 353.239 45.872C352.972 45.3813 352.609 45.008 352.151 44.752C351.703 44.4853 351.207 44.352 350.663 44.352C350.119 44.352 349.623 44.48 349.175 44.736C348.727 44.992 348.369 45.3653 348.103 45.856C347.836 46.3467 347.703 46.9227 347.703 47.584C347.703 48.256 347.836 48.8427 348.103 49.344C348.369 49.8347 348.727 50.2133 349.175 50.48C349.623 50.736 350.119 50.864 350.663 50.864C351.207 50.864 351.703 50.736 352.151 50.48C352.609 50.2133 352.972 49.8347 353.239 49.344C353.505 48.8427 353.639 48.2613 353.639 47.6ZM358.563 41.808C358.286 41.808 358.051 41.712 357.859 41.52C357.667 41.328 357.571 41.0933 357.571 40.816C357.571 40.5387 357.667 40.304 357.859 40.112C358.051 39.92 358.286 39.824 358.563 39.824C358.83 39.824 359.054 39.92 359.235 40.112C359.427 40.304 359.523 40.5387 359.523 40.816C359.523 41.0933 359.427 41.328 359.235 41.52C359.054 41.712 358.83 41.808 358.563 41.808ZM359.267 43.232V52H357.811V43.232H359.267ZM363.445 44.656C363.701 44.1547 364.063 43.7653 364.533 43.488C365.013 43.2107 365.594 43.072 366.277 43.072V44.576H365.893C364.261 44.576 363.445 45.4613 363.445 47.232V52H361.989V43.232H363.445V44.656ZM367.654 47.584C367.654 46.688 367.835 45.904 368.198 45.232C368.56 44.5493 369.056 44.0213 369.686 43.648C370.326 43.2747 371.035 43.088 371.814 43.088C372.582 43.088 373.248 43.2533 373.814 43.584C374.379 43.9147 374.8 44.3307 375.078 44.832V43.232H376.55V52H375.078V50.368C374.79 50.88 374.358 51.3067 373.782 51.648C373.216 51.9787 372.555 52.144 371.798 52.144C371.019 52.144 370.315 51.952 369.686 51.568C369.056 51.184 368.56 50.6453 368.198 49.952C367.835 49.2587 367.654 48.4693 367.654 47.584ZM375.078 47.6C375.078 46.9387 374.944 46.3627 374.678 45.872C374.411 45.3813 374.048 45.008 373.59 44.752C373.142 44.4853 372.646 44.352 372.102 44.352C371.558 44.352 371.062 44.48 370.614 44.736C370.166 44.992 369.808 45.3653 369.542 45.856C369.275 46.3467 369.142 46.9227 369.142 47.584C369.142 48.256 369.275 48.8427 369.542 49.344C369.808 49.8347 370.166 50.2133 370.614 50.48C371.062 50.736 371.558 50.864 372.102 50.864C372.646 50.864 373.142 50.736 373.59 50.48C374.048 50.2133 374.411 49.8347 374.678 49.344C374.944 48.8427 375.078 48.2613 375.078 47.6ZM381.026 44.432V49.6C381.026 50.0267 381.117 50.3307 381.298 50.512C381.479 50.6827 381.794 50.768 382.242 50.768H383.314V52H382.002C381.191 52 380.583 51.8133 380.178 51.44C379.773 51.0667 379.57 50.4533 379.57 49.6V44.432H378.434V43.232H379.57V41.024H381.026V43.232H383.314V44.432H381.026ZM386.07 41.808C385.793 41.808 385.558 41.712 385.366 41.52C385.174 41.328 385.078 41.0933 385.078 40.816C385.078 40.5387 385.174 40.304 385.366 40.112C385.558 39.92 385.793 39.824 386.07 39.824C386.337 39.824 386.561 39.92 386.742 40.112C386.934 40.304 387.03 40.5387 387.03 40.816C387.03 41.0933 386.934 41.328 386.742 41.52C386.561 41.712 386.337 41.808 386.07 41.808ZM386.774 43.232V52H385.318V43.232H386.774ZM393.32 52.144C392.498 52.144 391.752 51.9573 391.08 51.584C390.418 51.2107 389.896 50.6827 389.512 50C389.138 49.3067 388.952 48.5067 388.952 47.6C388.952 46.704 389.144 45.9147 389.528 45.232C389.922 44.5387 390.456 44.0107 391.128 43.648C391.8 43.2747 392.552 43.088 393.384 43.088C394.216 43.088 394.968 43.2747 395.64 43.648C396.312 44.0107 396.84 44.5333 397.224 45.216C397.618 45.8987 397.816 46.6933 397.816 47.6C397.816 48.5067 397.613 49.3067 397.208 50C396.813 50.6827 396.274 51.2107 395.592 51.584C394.909 51.9573 394.152 52.144 393.32 52.144ZM393.32 50.864C393.842 50.864 394.333 50.7413 394.792 50.496C395.25 50.2507 395.618 49.8827 395.896 49.392C396.184 48.9013 396.328 48.304 396.328 47.6C396.328 46.896 396.189 46.2987 395.912 45.808C395.634 45.3173 395.272 44.9547 394.824 44.72C394.376 44.4747 393.89 44.352 393.368 44.352C392.834 44.352 392.344 44.4747 391.896 44.72C391.458 44.9547 391.106 45.3173 390.84 45.808C390.573 46.2987 390.44 46.896 390.44 47.6C390.44 48.3147 390.568 48.9173 390.824 49.408C391.09 49.8987 391.442 50.2667 391.88 50.512C392.317 50.7467 392.797 50.864 393.32 50.864ZM404.242 43.072C405.309 43.072 406.173 43.3973 406.834 44.048C407.495 44.688 407.826 45.616 407.826 46.832V52H406.386V47.04C406.386 46.1653 406.167 45.4987 405.73 45.04C405.293 44.5707 404.695 44.336 403.938 44.336C403.17 44.336 402.557 44.576 402.098 45.056C401.65 45.536 401.426 46.2347 401.426 47.152V52H399.97V43.232H401.426V44.48C401.714 44.032 402.103 43.6853 402.594 43.44C403.095 43.1947 403.645 43.072 404.242 43.072Z" fill="#1D1D1F"/>
<ellipse cx="149.776" cy="46.1389" rx="2.48789" ry="2.63889" fill="#1D1D1F"/>
<ellipse cx="300.045" cy="46.1389" rx="2.48789" ry="2.63889" fill="#1D1D1F"/>
</svg>
