<svg width="90" height="90" viewBox="0 0 90 90" fill="none" xmlns="http://www.w3.org/2000/svg">
<circle cx="45" cy="45" r="45" fill="#8037FF" fill-opacity="0.15"/>
<path d="M68.1704 41.9163C68.1704 41.916 68.1702 41.9157 68.1702 41.9153C67.9566 41.1325 67.447 40.4999 66.7719 40.1799C58.6254 36.4462 58.421 35.9104 56.8438 35.9104C56.2314 35.9104 55.6342 36.0463 55.0689 36.3142L46.9157 40.1797C46.2405 40.4997 45.7307 41.1322 45.5168 41.9163C45.2523 42.8901 44.8085 44.9003 44.8085 47.421C44.8085 54.1857 47.8868 60.4196 54.3802 65.092C55.8833 66.1742 57.802 66.1752 59.3071 65.092C65.8147 60.4089 68.8789 54.1698 68.8789 47.4212C68.8789 44.9001 68.435 42.8901 68.1704 41.9163ZM58.0322 63.3204C57.2911 63.8536 56.3983 63.8551 55.6554 63.3205C49.7421 59.0644 46.9913 53.4571 46.9913 47.421C46.9913 45.1535 47.3873 43.3574 47.6231 42.4898C47.6761 42.2951 47.7787 42.1863 47.8507 42.1523C56.3782 38.1767 56.0802 38.0931 56.8438 38.0931C57.6023 38.0931 57.3174 38.1804 65.8369 42.1523C65.9085 42.1863 66.0109 42.2948 66.0641 42.4888C66.3003 43.3577 66.6963 45.1538 66.6963 47.4213C66.6962 53.446 63.9557 59.0561 58.0322 63.3204Z" fill="black"/>
<path d="M70.0281 8H32.0512C29.19 8 26.8624 10.3277 26.8624 13.1887V62.7494H20.6008C17.4677 62.7494 14.9187 65.2985 14.9187 68.4317V74.9729C14.9187 78.8475 18.0709 81.9996 21.9454 81.9996C38.6527 81.9996 55.6322 81.9994 67.2945 82C71.5881 82 75.0812 78.5068 75.0812 74.2132V13.0531C75.0811 10.2668 72.8143 8 70.0281 8ZM23.2342 79.6639C19.974 80.4711 17.1016 78.0448 17.1016 74.9729V68.4317C17.1016 66.502 18.6713 64.9323 20.6008 64.9323H26.8632C26.8632 64.9326 26.8632 64.9327 26.8632 64.9328V64.933C26.8632 64.9331 26.8632 64.9337 26.8632 64.934C26.8632 64.9347 26.8632 64.9356 26.8632 64.9369C26.8632 64.9463 26.8632 64.9544 26.8632 64.9599C26.8632 64.9618 26.8632 64.9632 26.8632 64.9646C26.8632 64.9657 26.8632 64.967 26.8632 64.9681C26.8632 64.9687 26.8632 64.969 26.8632 64.9696C26.8632 64.97 26.8632 64.9701 26.8632 64.9706C26.8634 65.2086 26.8642 66.762 26.8686 74.9726C26.8686 77.2264 25.3216 79.1256 23.2342 79.6639ZM72.8984 74.2134C72.8982 77.3033 70.3844 79.8173 67.2943 79.8173H27.1122C29.4655 77.3462 29.0154 74.5581 29.0513 73.136V63.8408C29.0513 63.802 29.0491 63.7637 29.0452 63.726V13.1887C29.0452 11.5312 30.3938 10.1827 32.0513 10.1827H70.0281C71.6108 10.1827 72.8984 11.4703 72.8984 13.053V74.2134V74.2134Z" fill="black"/>
<path d="M63.2704 45.5704C62.8011 45.192 62.1142 45.2659 61.7358 45.735C54.4249 54.7554 54.9045 54.293 54.7617 54.3027C54.6209 54.3118 54.7649 54.3383 51.8537 51.6125C51.4165 51.1977 50.7258 51.2154 50.3107 51.6526C49.8956 52.0898 49.9135 52.7805 50.3507 53.1957L53.1382 55.8423C53.5737 56.2559 54.1548 56.486 54.7523 56.486C55.4445 56.486 56.1229 56.174 56.5744 55.6141L63.4349 47.1055C63.8133 46.6359 63.7396 45.9488 63.2704 45.5704Z" fill="black"/>
<path d="M61.3174 16.3391H33.5225C32.9198 16.3391 32.4312 16.8276 32.4312 17.4305C32.4312 18.0333 32.9198 18.5218 33.5225 18.5218H61.3172C61.9199 18.5218 62.4086 18.0333 62.4086 17.4305C62.4086 16.8276 61.9201 16.3391 61.3174 16.3391Z" fill="black"/>
<path d="M67.7874 16.3391H65.6829C65.0802 16.3391 64.5916 16.8276 64.5916 17.4305C64.5916 18.0333 65.0802 18.5218 65.6829 18.5218H67.7874C68.3901 18.5218 68.8788 18.0333 68.8788 17.4305C68.8788 16.8276 68.3903 16.3391 67.7874 16.3391Z" fill="black"/>
<path d="M67.7874 71.3201H41.8844C41.2818 71.3201 40.7931 71.8086 40.7931 72.4114C40.7931 73.0143 41.2818 73.5028 41.8844 73.5028H67.7874C68.3901 73.5028 68.8787 73.0143 68.8787 72.4114C68.8789 71.8086 68.3902 71.3201 67.7874 71.3201Z" fill="black"/>
<path d="M37.5191 71.3201H33.5228C32.9201 71.3201 32.4314 71.8086 32.4314 72.4114C32.4314 73.0143 32.9201 73.5028 33.5228 73.5028H37.5191C38.1217 73.5028 38.6104 73.0143 38.6104 72.4114C38.6104 71.8086 38.1217 71.3201 37.5191 71.3201Z" fill="black"/>
<path d="M67.7874 24.197H33.5225C32.9198 24.197 32.4312 24.6855 32.4312 25.2884C32.4312 25.8912 32.9198 26.3797 33.5225 26.3797H67.7874C68.3901 26.3797 68.8788 25.8912 68.8788 25.2884C68.879 24.6855 68.3903 24.197 67.7874 24.197Z" fill="black"/>
<path d="M67.7874 32.0547H47.8509C47.2482 32.0547 46.7595 32.5432 46.7595 33.146C46.7595 33.7489 47.2482 34.2374 47.8509 34.2374H67.7874C68.3901 34.2374 68.8788 33.7489 68.8788 33.146C68.8788 32.5432 68.3903 32.0547 67.7874 32.0547Z" fill="black"/>
<path d="M43.4855 32.0547H33.5228C32.9201 32.0547 32.4314 32.5432 32.4314 33.146C32.4314 33.7489 32.9201 34.2374 33.5228 34.2374H43.4855C44.0882 34.2374 44.5768 33.7489 44.5768 33.146C44.5768 32.5432 44.0882 32.0547 43.4855 32.0547Z" fill="black"/>
<path d="M41.5833 39.9124H33.5225C32.9198 39.9124 32.4312 40.4009 32.4312 41.0037C32.4312 41.6066 32.9198 42.0951 33.5225 42.0951H41.5833C42.186 42.0951 42.6747 41.6066 42.6747 41.0037C42.6747 40.4009 42.186 39.9124 41.5833 39.9124Z" fill="black"/>
<path d="M41.5833 47.7703H33.5225C32.9198 47.7703 32.4312 48.2588 32.4312 48.8616C32.4312 49.4645 32.9198 49.953 33.5225 49.953H41.5833C42.186 49.953 42.6747 49.4645 42.6747 48.8616C42.6747 48.2588 42.186 47.7703 41.5833 47.7703Z" fill="black"/>
<path d="M43.4751 55.6282H33.5225C32.9198 55.6282 32.4312 56.1167 32.4312 56.7195C32.4312 57.3224 32.9198 57.8109 33.5225 57.8109H43.4751C44.0778 57.8109 44.5665 57.3224 44.5665 56.7195C44.5665 56.1167 44.0779 55.6282 43.4751 55.6282Z" fill="black"/>
<path d="M47.0036 63.4861H33.5225C32.9198 63.4861 32.4312 63.9746 32.4312 64.5774C32.4312 65.1803 32.9198 65.6688 33.5225 65.6688H47.0036C47.6063 65.6688 48.0949 65.1803 48.0949 64.5774C48.0951 63.9746 47.6064 63.4861 47.0036 63.4861Z" fill="black"/>
</svg>
