<svg width="90" height="90" viewBox="0 0 90 90" fill="none" xmlns="http://www.w3.org/2000/svg">
<circle cx="45" cy="45" r="45" fill="#8037FF" fill-opacity="0.15"/>
<path d="M22.219 33.3056L24.2672 31.2576C24.3299 31.1949 24.3856 31.1272 24.4377 31.0576H25.6813L26.8226 32.7901C27.0311 33.1063 27.3766 33.2779 27.7289 33.2779C27.9335 33.2779 28.1405 33.2199 28.3242 33.0989C28.8241 32.7695 28.9624 32.0973 28.633 31.5974L27.5634 29.9737L28.6329 28.3509C28.9623 27.8511 28.8243 27.1788 28.3243 26.8493C27.8245 26.5199 27.1523 26.6579 26.8226 27.1578L25.6813 28.8895H24.4367C24.3847 28.8201 24.3293 28.7529 24.267 28.6906L22.219 26.6424C22.1562 26.5796 22.0888 26.5243 22.0196 26.4726V25.228L23.7516 24.087C24.2516 23.7576 24.3899 23.0852 24.0605 22.5854C23.7311 22.0855 23.0586 21.9472 22.559 22.2766L20.9356 23.3461L19.3124 22.2767C18.8123 21.9472 18.1402 22.0856 17.8108 22.5854C17.4814 23.0854 17.6198 23.7576 18.1195 24.087L19.8516 25.228V26.4727C19.7824 26.5243 19.715 26.5797 19.6523 26.6424L17.6041 28.6906C17.5417 28.7529 17.4864 28.8202 17.4343 28.8895H16.1898L15.0484 27.1578C14.7189 26.6579 14.0464 26.5199 13.5467 26.8493C13.0469 27.1788 12.9088 27.851 13.2381 28.3509L14.3077 29.9737L13.238 31.5974C12.9086 32.0973 13.0469 32.7695 13.5469 33.0989C13.7306 33.2199 13.9375 33.2779 14.1422 33.2779C14.4946 33.2779 14.8401 33.1063 15.0484 32.7901L16.1898 31.0576H17.4333C17.4855 31.1272 17.5411 31.1949 17.6039 31.2575L19.652 33.3056C19.7149 33.3685 19.7822 33.4237 19.8513 33.4753V34.72L18.1193 35.8612C17.6195 36.1906 17.481 36.8628 17.8105 37.3627C18.1399 37.8625 18.8123 38.0009 19.3121 37.6715L20.9353 36.6021L22.5587 37.6716C22.7424 37.7926 22.9493 37.8505 23.154 37.8505C23.5064 37.8505 23.8519 37.679 24.0602 37.3627C24.3896 36.863 24.2513 36.1906 23.7514 35.8612L22.0196 34.72V33.4754C22.0888 33.4237 22.1562 33.3685 22.219 33.3056ZM19.3866 29.974L20.9356 28.4249L22.4847 29.974L20.9356 31.5231L19.3866 29.974Z" fill="black"/>
<path d="M80.1934 18.3696H74.134C73.5354 18.3696 73.05 18.855 73.05 19.4536C73.05 20.0523 73.5354 20.5376 74.134 20.5376H79.832V40.5663H66.6363C65.5294 40.5663 63.4743 39.7189 61.823 39.0382C60.9664 38.6849 60.1571 38.3514 59.5199 38.1497C52.5992 35.9601 37.4007 35.9601 30.48 38.1497C29.8427 38.3514 29.0335 38.6849 28.1769 39.0382C26.5256 39.7189 24.4705 40.5663 23.3635 40.5663H10.168V20.5376H69.0754C69.6741 20.5376 70.1594 20.0523 70.1594 19.4536C70.1594 18.855 69.6741 18.3696 69.0754 18.3696H9.80664C8.81039 18.3696 8 19.18 8 20.1763V52.8039C8 53.8002 8.81039 54.6105 9.80664 54.6105H42.4707C43.0694 54.6105 43.5547 54.1252 43.5547 53.5266C43.5547 52.9279 43.0694 52.4426 42.4707 52.4426H19.5116V49.4586H70.5206V52.4426H47.5293C46.9306 52.4426 46.4453 52.9279 46.4453 53.5266C46.4453 54.1252 46.9306 54.6105 47.5293 54.6105H80.1934C81.1896 54.6105 82 53.8002 82 52.8039V20.1763C82 19.18 81.1896 18.3696 80.1934 18.3696V18.3696ZM72.6887 52.4424V49.0971C72.6887 48.1009 71.878 47.2905 70.8816 47.2905H19.1506C18.1542 47.2905 17.3438 48.1009 17.3438 49.0971V52.4424H10.168V42.7343H23.3637C24.9 42.7343 27.08 41.8354 29.0034 41.0424C29.8164 40.7072 30.5843 40.3906 31.134 40.2167C37.7431 38.1256 52.2569 38.1256 58.866 40.2167C59.4157 40.3906 60.1836 40.7072 60.9966 41.0424C62.92 41.8354 65.1 42.7343 66.6363 42.7343H79.832V52.4424H72.6887Z" fill="black"/>
<path d="M66.3176 32.0488V36.2563C66.3176 37.2525 67.128 38.0629 68.1243 38.0629H75.085C76.0813 38.0629 76.8917 37.2525 76.8917 36.2563V32.0488C76.8917 31.0526 76.0813 30.2422 75.085 30.2422H68.1243C67.1282 30.2422 66.3176 31.0527 66.3176 32.0488ZM68.4856 32.4102H74.7237V35.8949H68.4856V32.4102Z" fill="black"/>
<path d="M35.2635 66.0028C35.6381 65.6497 36.2649 65.0586 36.2649 63.9675C36.2649 62.8765 35.6381 62.2855 35.2635 61.9324C34.9526 61.6393 34.9427 61.6055 34.9427 61.4747C34.9427 61.3442 34.9526 61.3103 35.2633 61.0174C35.4606 60.8314 35.7062 60.6 35.9061 60.2769C36.221 59.7678 36.0636 59.0997 35.5544 58.7848C35.0452 58.4699 34.3772 58.6274 34.0623 59.1364C34.0121 59.2175 33.8976 59.3255 33.7764 59.4397C33.4018 59.7928 32.7748 60.3836 32.7748 61.4747C32.7748 62.5657 33.4016 63.1567 33.7762 63.5098C34.0871 63.8029 34.097 63.8367 34.097 63.9675C34.097 64.0983 34.0871 64.1323 33.7762 64.4253C33.4016 64.7784 32.7748 65.3695 32.7748 66.4606C32.7748 67.5515 33.4013 68.1425 33.7762 68.496C34.0871 68.7891 34.097 68.8231 34.097 68.9539C34.097 69.0847 34.0871 69.1188 33.7762 69.4119C33.643 69.5376 33.4919 69.68 33.346 69.8573C32.9654 70.3195 33.0316 71.0026 33.4938 71.3831C33.6956 71.5494 33.9396 71.6303 34.1822 71.6303C34.495 71.6303 34.8054 71.4956 35.0196 71.2353C35.0788 71.1636 35.1685 71.0789 35.2636 70.9893C35.6381 70.6362 36.2651 70.0451 36.2651 68.9539C36.2651 67.8627 35.6381 67.2717 35.2635 66.9184C34.9527 66.6253 34.9429 66.5914 34.9429 66.4606C34.9429 66.3298 34.9526 66.2959 35.2635 66.0028V66.0028Z" fill="black"/>
<path d="M45.7436 66.0029C46.1182 65.6498 46.7452 65.0588 46.7452 63.9676C46.7452 62.8765 46.1182 62.2855 45.7436 61.9323C45.4327 61.6393 45.4229 61.6053 45.4229 61.4745C45.4229 61.344 45.4327 61.3102 45.7434 61.0174C45.9409 60.8314 46.1864 60.6 46.3862 60.2768C46.7011 59.7678 46.5435 59.0996 46.0345 58.7848C45.525 58.4699 44.8572 58.6273 44.5424 59.1366C44.4922 59.2175 44.3777 59.3255 44.2565 59.4397C43.8819 59.7928 43.2549 60.3836 43.2549 61.4747C43.2549 62.5658 43.8819 63.1567 44.2565 63.51C44.5674 63.8029 44.5772 63.8369 44.5772 63.9677C44.5772 64.0985 44.5674 64.1325 44.2565 64.4254C43.8819 64.7785 43.2549 65.3695 43.2549 66.4607C43.2549 67.5518 43.8817 68.1428 44.2563 68.4962C44.5672 68.7893 44.5771 68.8232 44.5771 68.954C44.5771 69.0848 44.5672 69.1189 44.2563 69.4121C44.1231 69.5378 43.972 69.6802 43.8261 69.8575C43.4455 70.3197 43.5117 71.0028 43.9739 71.3833C44.1757 71.5495 44.4197 71.6305 44.6623 71.6305C44.9751 71.6305 45.2855 71.4958 45.4997 71.2355C45.5589 71.1638 45.6486 71.0791 45.7437 70.9895C46.1182 70.6364 46.7452 70.0452 46.7452 68.954C46.7452 67.8628 46.1182 67.2718 45.7436 66.9186C45.4327 66.6254 45.4229 66.5915 45.4229 66.4606C45.4229 66.3299 45.4327 66.296 45.7436 66.0029V66.0029Z" fill="black"/>
<path d="M56.2235 66.0032C56.5982 65.6501 57.225 65.0589 57.225 63.9679C57.225 62.8768 56.5982 62.2858 56.2235 61.9327C55.9127 61.6396 55.9028 61.6058 55.9028 61.475C55.9028 61.1718 56.4586 60.9362 56.8661 60.2774C57.1811 59.7682 57.0237 59.1002 56.5145 58.7853C56.0053 58.4703 55.3371 58.6279 55.0223 59.1369C54.9722 59.218 54.8577 59.326 54.7365 59.4402C54.3618 59.7932 53.7349 60.3841 53.7349 61.4752C53.7349 62.5662 54.3617 63.1572 54.7363 63.5103C55.0472 63.8034 55.057 63.8372 55.057 63.968C55.057 64.0988 55.0472 64.1328 54.7363 64.4258C54.3617 64.7789 53.7349 65.37 53.7349 66.461C53.7349 67.5521 54.3617 68.1431 54.7363 68.4965C55.0472 68.7896 55.057 68.8236 55.057 68.9545C55.057 69.0854 55.0472 69.1194 54.7363 69.4125C54.6031 69.5383 54.452 69.6806 54.3059 69.858C53.9255 70.3202 53.9917 71.0032 54.4539 71.3838C54.6557 71.5499 54.8996 71.6308 55.1422 71.6308C55.4551 71.6308 55.7654 71.4961 55.9797 71.2358C56.0388 71.1641 56.1286 71.0794 56.2237 70.9898C56.5982 70.6367 57.225 70.0456 57.225 68.9545C57.225 67.8634 56.5982 67.2723 56.2235 66.9191C55.9127 66.6258 55.9028 66.592 55.9028 66.461C55.903 66.3301 55.9127 66.2963 56.2235 66.0032V66.0032Z" fill="black"/>
</svg>
