<svg width="90" height="90" viewBox="0 0 90 90" fill="none" xmlns="http://www.w3.org/2000/svg">
<circle cx="45" cy="45" r="45" fill="#8037FF" fill-opacity="0.15"/>
<path d="M65.3765 16.325C64.7303 16.325 64.2068 16.8485 64.2068 17.4947V29.1125V35.2114H37.7102H25.7931V13.7541C25.7931 11.8713 27.3248 10.3392 29.2079 10.3392H60.792C62.6749 10.3392 64.2068 11.871 64.2068 13.7541C64.2068 14.4001 64.7303 14.9238 65.3765 14.9238C66.0226 14.9238 66.5462 14.4003 66.5462 13.7541C66.5461 10.5812 63.9649 8 60.792 8H29.2079C26.035 8 23.4539 10.5812 23.4539 13.7541V36.3813V40.2801V71.2449C23.4539 73.5861 24.8601 75.6036 26.8716 76.5013V78.9588C26.8716 80.6356 28.236 81.9999 29.9127 81.9999H32.4077C34.0845 81.9999 35.4488 80.6356 35.4488 78.9588V76.9991H36.9899C37.636 76.9991 38.1596 76.4756 38.1596 75.8294C38.1596 75.1833 37.6361 74.6597 36.9899 74.6597H34.2912C34.2872 74.6597 34.2833 74.6591 34.2792 74.6591H29.1842C27.3123 74.6461 25.7932 73.1199 25.7932 71.245V41.4498H35.839C37.5159 41.4498 38.8801 40.0856 38.8801 38.4087V37.5509H64.207V71.2449C64.207 73.1196 62.6881 74.646 60.816 74.659H55.7208C55.7168 74.659 55.7129 74.6594 55.7088 74.6596H40.8369C40.1908 74.6596 39.6672 75.1831 39.6672 75.8293C39.6672 76.4755 40.1907 76.9989 40.8369 76.9989H54.5513V78.9586C54.5513 80.6355 55.9157 81.9997 57.5924 81.9997H60.0874C61.7643 81.9997 63.1285 80.6355 63.1285 78.9586V76.5013C65.1401 75.6036 66.5462 73.586 66.5462 71.2449V36.3813V29.1127V17.4947C66.5461 16.8486 66.0226 16.325 65.3765 16.325ZM29.2108 76.9989H33.1094V78.9586C33.1094 79.3456 32.7945 79.6605 32.4076 79.6605H29.9125C29.5256 79.6605 29.2107 79.3456 29.2107 78.9586V76.9989H29.2108ZM36.5407 38.4086C36.5407 38.7955 36.2258 39.1104 35.8389 39.1104H25.7931V37.5509H36.5406V38.4086H36.5407ZM60.789 78.9588C60.789 79.3458 60.4743 79.6606 60.0871 79.6606H57.5921C57.2052 79.6606 56.8902 79.3457 56.8902 78.9588V76.9991H60.7888V78.9588H60.789Z" fill="black"/>
<path d="M59.3485 14.636V30.8112C59.3485 31.4572 59.872 31.9809 60.5182 31.9809C61.1644 31.9809 61.6879 31.4574 61.6879 30.8112V14.636C61.6879 13.9899 61.1644 13.4663 60.5182 13.4663C59.8721 13.4663 59.3485 13.9899 59.3485 14.636Z" fill="black"/>
<path d="M59.3485 69.0181C59.3485 69.6643 59.872 70.1878 60.5182 70.1878C61.1644 70.1878 61.6879 69.6643 61.6879 69.0181V68.2327C61.6879 67.5866 61.1644 67.063 60.5182 67.063C59.8721 67.063 59.3485 67.5865 59.3485 68.2327V69.0181Z" fill="black"/>
<path d="M60.5182 65.6067C61.1644 65.6067 61.6879 65.0832 61.6879 64.437V41.8757C61.6879 41.2295 61.1644 40.7061 60.5182 40.7061C59.8721 40.7061 59.3485 41.2295 59.3485 41.8757V64.437C59.3485 65.0831 59.8721 65.6067 60.5182 65.6067Z" fill="black"/>
<path d="M30.3359 17.3027C29.6899 17.3027 29.1663 17.8262 29.1663 18.4724V28.0995C29.1663 28.7455 29.6897 29.2692 30.3359 29.2692C30.9821 29.2692 31.5056 28.7457 31.5056 28.0995V19.6421H32.2075C32.8535 19.6421 33.3772 19.1186 33.3772 18.4724C33.3772 17.8262 32.8537 17.3027 32.2075 17.3027H30.3359Z" fill="black"/>
</svg>
