<svg width="90" height="90" viewBox="0 0 90 90" fill="none" xmlns="http://www.w3.org/2000/svg">
<circle cx="45" cy="45" r="45" fill="#8037FF" fill-opacity="0.15"/>
<path d="M53.5474 46.3536C53.5474 48.1748 55.0291 49.6566 56.8503 49.6566C58.6716 49.6566 60.1533 48.1748 60.1533 46.3536C60.1533 44.5324 58.6716 43.0508 56.8503 43.0508C55.0291 43.0508 53.5474 44.5325 53.5474 46.3536ZM57.9852 46.3536C57.9852 46.9794 57.4762 47.4886 56.8502 47.4886C56.2242 47.4886 55.7152 46.9796 55.7152 46.3536C55.7152 45.7279 56.2242 45.2188 56.8502 45.2188C57.4762 45.2188 57.9852 45.7279 57.9852 46.3536Z" fill="black"/>
<path d="M29.8468 46.3536C29.8468 48.1748 31.3285 49.6566 33.1498 49.6566C34.971 49.6566 36.4526 48.1748 36.4526 46.3536C36.4526 44.5324 34.971 43.0508 33.1498 43.0508C31.3285 43.0508 29.8468 44.5325 29.8468 46.3536ZM34.2845 46.3536C34.2845 46.9794 33.7754 47.4886 33.1496 47.4886C32.5238 47.4886 32.0146 46.9796 32.0146 46.3536C32.0146 45.7279 32.5237 45.2187 33.1496 45.2187C33.7753 45.2189 34.2845 45.7279 34.2845 46.3536Z" fill="black"/>
<path d="M36.7836 37.0026C36.7836 41.5332 40.4694 45.2191 44.9999 45.2191C49.5305 45.2191 53.2163 41.5332 53.2163 37.0026C53.2163 32.472 49.5305 28.7861 44.9999 28.7861C40.4694 28.7861 36.7836 32.472 36.7836 37.0026ZM51.0482 37.0026C51.0482 40.3377 48.3349 43.0511 44.9997 43.0511C41.6645 43.0511 38.9514 40.3378 38.9514 37.0026C38.9514 33.6674 41.6645 30.9541 44.9997 30.9541C48.3349 30.9541 51.0482 33.6675 51.0482 37.0026Z" fill="black"/>
<path d="M43.9159 32.9779V34.2064C42.7958 34.6423 41.9984 35.7296 41.9984 37.0021C41.9984 38.6571 43.3447 40.0035 44.9999 40.0035C46.6551 40.0035 48.0015 38.6572 48.0015 37.0021C48.0015 35.7295 47.2041 34.6423 46.0839 34.2064V32.978C46.0839 32.3792 45.5987 31.894 44.9999 31.894C44.4011 31.894 43.9159 32.3792 43.9159 32.9779V32.9779ZM45.8334 37.0021C45.8334 37.4617 45.4595 37.8356 44.9997 37.8356C44.5401 37.8356 44.1662 37.4617 44.1662 37.0021C44.1662 36.5425 44.5401 36.1686 44.9997 36.1686C45.4595 36.1686 45.8334 36.5425 45.8334 37.0021Z" fill="black"/>
<path d="M61.0732 71.1397C63.6949 71.1397 65.8278 69.0069 65.8278 66.3854V60.6847C67.5037 59.8369 68.6562 58.0989 68.6562 56.0959V55.5283C68.6562 54.8936 68.3624 54.3266 67.9041 53.9549V39.5318C67.9041 38.933 67.4189 38.4478 66.8201 38.4478C66.2213 38.4478 65.7361 38.933 65.7361 39.5318V53.5021H24.2639V16.5613H42.4707C43.0695 16.5613 43.5547 16.0761 43.5547 15.4774C43.5547 14.8786 43.0695 14.3934 42.4707 14.3934H24.2639V13.1403C24.2639 11.5013 25.5973 10.168 27.2363 10.168H62.7637C64.4028 10.168 65.7361 11.5014 65.7361 13.1403V14.3934H47.5293C46.9305 14.3934 46.4453 14.8786 46.4453 15.4774C46.4453 16.0761 46.9305 16.5613 47.5293 16.5613H65.7361V34.4733C65.7361 35.0721 66.2213 35.5573 66.8201 35.5573C67.4189 35.5573 67.9041 35.0721 67.9041 34.4733C67.9041 33.5885 67.9041 14.0592 67.9041 13.1403C67.9041 10.306 65.5981 8 62.7637 8H27.2363C24.4019 8 22.0959 10.306 22.0959 13.1403V53.9549C21.6376 54.3266 21.3438 54.8936 21.3438 55.5283V56.0959C21.3438 58.0991 22.4961 59.8369 24.1721 60.6847V66.3854C24.1721 69.0069 26.3049 71.1397 28.9266 71.1397H33.3016V72.7432C32.7706 73.1396 32.4247 73.7708 32.4247 74.4829V79.8275C32.4247 81.0254 33.3993 82 34.5972 82H38.1066C39.3044 82 40.279 81.0254 40.279 79.8275V74.4829C40.279 73.7709 39.9331 73.1396 39.4023 72.7432V71.1397H50.598V72.7432C50.067 73.1396 49.7211 73.7708 49.7211 74.4829V79.8275C49.7211 81.0254 50.6957 82 51.8936 82H55.4031C56.601 82 57.5756 81.0254 57.5756 79.8275V74.4829C57.5756 73.7708 57.2296 73.1396 56.6987 72.7432V71.1397H61.0732ZM63.6598 66.3855C63.6598 67.8116 62.4995 68.9719 61.0732 68.9719H56.6985V61.2364H63.5158C63.5638 61.2364 63.6118 61.2357 63.6598 61.2344V66.3855ZM33.3014 68.9718H28.9265C27.5004 68.9718 26.3399 67.8116 26.3399 66.3854V61.2341C26.3879 61.2354 26.4359 61.2361 26.4839 61.2361H33.3013V68.9718H33.3014ZM38.1064 79.832L34.5924 79.8275L34.5969 74.4786C34.597 74.4786 34.5973 74.4786 34.5975 74.4784L38.1066 74.4787L38.1107 74.4829L38.1064 79.832ZM35.4694 72.3104C35.4694 71.1394 35.4694 62.3969 35.4694 61.2363H37.2342V72.3104H35.4694ZM50.5979 68.9718H39.4021V61.2363H50.5979V68.9718ZM55.403 79.832L51.889 79.8275L51.8934 74.4786C51.8936 74.4786 51.8939 74.4786 51.894 74.4784L55.4032 74.4787L55.4074 74.4829L55.403 79.832ZM52.7658 72.3104C52.7658 71.1394 52.7658 62.3969 52.7658 61.2363H54.5306V72.3104H52.7658ZM26.484 59.0683C24.854 59.0683 23.5117 57.7408 23.5117 56.096V55.6703H66.4884V56.096C66.4884 57.7733 65.1116 59.0683 63.516 59.0683C47.4273 59.0683 42.6662 59.0683 26.484 59.0683Z" fill="black"/>
</svg>
