<svg width="90" height="90" viewBox="0 0 90 90" fill="none" xmlns="http://www.w3.org/2000/svg">
<circle cx="45" cy="45" r="45" fill="#8037FF" fill-opacity="0.15"/>
<path d="M66.9201 51.6051C66.9104 51.5722 66.8991 51.5398 66.8861 51.5079L64.5736 45.7267C64.4985 45.5389 64.3756 45.3742 64.2169 45.2488C64.0583 45.1234 63.8696 45.0418 63.6696 45.0122C63.4696 44.9825 63.2653 45.0058 63.0771 45.0798C62.889 45.1537 62.7234 45.2757 62.5971 45.4336L60.2063 48.4225C60.0266 48.647 59.8017 48.8312 59.546 48.9629C59.2903 49.0946 59.0098 49.1709 58.7226 49.1868C58.4355 49.2027 58.1482 49.1579 57.8796 49.0552C57.6109 48.9525 57.367 48.7944 57.1636 48.591C56.8014 48.2256 56.5894 47.7375 56.5697 47.2234C56.55 46.7092 56.7239 46.2064 57.0571 45.8143C58.6406 43.9754 59.5191 41.6338 59.5359 39.2072C59.5528 36.7806 58.7068 34.427 57.149 32.5664L56.2946 31.5402C56.1579 31.3762 55.9784 31.2532 55.7761 31.1849C55.5738 31.1166 55.3566 31.1057 55.1484 31.1533C54.9403 31.2009 54.7494 31.3053 54.5969 31.4547C54.4444 31.6042 54.3363 31.793 54.2846 32.0001L53.9696 33.2599C53.8413 33.7764 53.5892 34.2539 53.2352 34.6513C52.8812 35.0487 52.4358 35.354 51.9375 35.541V33.7857C51.9437 30.3092 50.8572 26.9188 48.8315 24.0935C47.0867 21.6601 46.1509 18.7399 46.1563 15.7456V11.4687C46.1563 11.2594 46.0995 11.0541 45.9919 10.8746C45.8844 10.695 45.7301 10.548 45.5456 10.4493C45.361 10.3505 45.1532 10.3037 44.9441 10.3139C44.7351 10.324 44.5327 10.3906 44.3586 10.5067L39.4156 13.802C37.6567 14.9697 36.3688 16.7231 35.7807 18.7508C35.1926 20.7784 35.3425 22.9489 36.2037 24.8765C36.709 26.0025 36.888 27.2477 36.7206 28.4705C36.5531 29.6933 36.0458 30.8445 35.2564 31.7933L25.896 43.1245C23.1975 46.3915 21.4838 50.3586 20.955 54.5628C20.4262 58.767 21.1042 63.0349 22.9098 66.8683C24.7153 70.7017 27.574 73.9425 31.1521 76.2123C34.7302 78.4822 38.8802 79.6874 43.1175 79.6875H45.477C48.4115 79.6955 51.3184 79.1213 54.0295 77.9983C56.7406 76.8753 59.202 75.2257 61.2713 73.145L61.563 72.8535C64.2936 70.127 66.2339 66.7111 67.1772 62.9694C68.1205 59.2277 68.0317 55.3003 66.9201 51.6051V51.6051ZM59.9278 71.218L59.6363 71.5096C57.7812 73.3749 55.5745 74.8537 53.1441 75.8605C50.7137 76.8673 48.1077 77.3821 45.477 77.375H43.1175C39.3188 77.375 35.5984 76.2945 32.3907 74.2596C29.183 72.2247 26.6202 69.3194 25.0016 65.8827C23.383 62.4461 22.7752 58.62 23.2493 54.851C23.7234 51.082 25.2598 47.5256 27.6791 44.5969L37.0395 33.2656C38.1042 31.9861 38.7884 30.4334 39.0143 28.7842C39.2402 27.135 38.9987 25.4556 38.3172 23.9369C37.6787 22.5077 37.5676 20.8984 38.0036 19.395C38.4396 17.8916 39.3945 16.5914 40.6986 15.7256L43.8438 13.6292V15.7456C43.8375 19.222 44.9241 22.6124 46.9497 25.4377C48.6946 27.8711 49.6304 30.7914 49.625 33.7857V36.9062C49.625 37.2129 49.7468 37.507 49.9637 37.7238C50.1805 37.9407 50.4746 38.0625 50.7813 38.0625C51.863 38.0637 52.9218 37.7511 53.8294 37.1626C54.737 36.574 55.4544 35.7348 55.8945 34.7466C56.853 36.1868 57.314 37.9011 57.207 39.6277C57.1 41.3544 56.4309 42.9986 55.3019 44.3094C54.9255 44.7486 54.6403 45.2583 54.4629 45.8089C54.2855 46.3594 54.2195 46.9398 54.2688 47.5161C54.318 48.0924 54.4815 48.6532 54.7497 49.1657C55.018 49.6781 55.3855 50.1321 55.831 50.501C56.2765 50.87 56.791 51.1465 57.3445 51.3145C57.898 51.4826 58.4794 51.5387 59.0548 51.4797C59.6302 51.4207 60.1881 51.2477 60.696 50.9708C61.2038 50.694 61.6515 50.3187 62.0128 49.8671L63.1641 48.428L64.7203 52.3185C65.7001 55.6081 65.772 59.1015 64.9283 62.4286C64.0846 65.7557 62.3568 68.7927 59.9278 71.218V71.218Z" fill="black"/>
<path d="M57.4556 55.4429C57.2607 55.3923 57.0559 55.3935 56.8617 55.4464C56.6674 55.4993 56.4903 55.6021 56.348 55.7445L52.9842 59.1085C52.5729 59.5224 52.0176 59.7614 51.4343 59.7756C50.851 59.7897 50.2847 59.578 49.8538 59.1846C49.4229 58.7911 49.1607 58.2464 49.1218 57.6642C49.083 57.082 49.2707 56.5073 49.6455 56.0602C50.914 54.5381 51.7112 52.6793 51.9397 50.7112C52.1681 48.7431 51.8179 46.7511 50.9318 44.979L45.4806 34.0763C45.3681 33.8513 45.1854 33.6691 44.96 33.5574C44.7347 33.4456 44.4791 33.4104 44.2319 33.4571C43.9848 33.5037 43.7596 33.6297 43.5905 33.8159C43.4213 34.002 43.3176 34.2383 43.2948 34.4888L42.4565 43.7099C42.3682 44.6602 42.0898 45.5831 41.6379 46.4237C41.186 47.2644 40.5697 48.0057 39.8258 48.6035L35.0602 52.416C33.6566 53.5334 32.5238 54.9538 31.7466 56.5708C30.9695 58.1878 30.568 59.9596 30.5722 61.7537V63.0661C30.5722 64.6364 30.8815 66.1915 31.4825 67.6423C32.0835 69.0931 32.9644 70.4114 34.0748 71.5218C35.1853 72.6322 36.5036 73.513 37.9544 74.114C39.4053 74.7149 40.9603 75.0242 42.5307 75.0241C42.5698 75.0241 42.6091 75.0241 42.6485 75.0241L45.9897 74.9912C49.137 74.9678 52.1465 73.6971 54.3581 71.4578L54.3694 71.4466C56.3113 69.4874 57.6968 67.0466 58.3836 64.375C59.0704 61.7033 59.0337 58.897 58.2774 56.2442C58.222 56.0506 58.117 55.8749 57.9729 55.7344C57.8288 55.5938 57.6504 55.4934 57.4556 55.4429ZM52.7311 69.8132L52.7209 69.8235L52.7177 69.8267C50.9335 71.6333 48.5056 72.6586 45.9665 72.6774L42.6252 72.7103C41.3506 72.7229 40.0862 72.4827 38.9051 72.0037C37.7239 71.5247 36.6493 70.8163 35.7436 69.9195C34.8378 69.0227 34.1187 67.9553 33.6279 66.779C33.1372 65.6026 32.8844 64.3407 32.8842 63.0661V61.7537C32.8808 60.3066 33.2047 58.8775 33.8316 57.5732C34.4585 56.2689 35.3722 55.1232 36.5043 54.2219L41.2699 50.4093C42.2569 49.6164 43.0744 48.6333 43.6739 47.5183C44.2735 46.4033 44.6428 45.1792 44.7601 43.9187L45.2304 38.7459L48.864 46.0132C49.549 47.3832 49.8197 48.9232 49.6431 50.4447C49.4665 51.9661 48.8502 53.4031 47.8697 54.5798C47.1159 55.4843 46.74 56.6447 46.82 57.8194C46.9 58.9941 47.4299 60.0927 48.2993 60.8867C49.1688 61.6807 50.3109 62.1089 51.488 62.0823C52.6651 62.0556 53.7867 61.5761 54.6193 60.7436L56.4633 58.8995C56.7058 60.8824 56.496 62.8945 55.8496 64.7846C55.2032 66.6748 54.137 68.394 52.7311 69.8132V69.8132Z" fill="black"/>
<path d="M24.1875 32.2812V34.5938C24.1875 34.9004 24.3093 35.1945 24.5262 35.4113C24.743 35.6282 25.0371 35.75 25.3438 35.75C25.6504 35.75 25.9445 35.6282 26.1613 35.4113C26.3782 35.1945 26.5 34.9004 26.5 34.5938V32.2812C26.5 31.9746 26.3782 31.6805 26.1613 31.4637C25.9445 31.2468 25.6504 31.125 25.3438 31.125C25.0371 31.125 24.743 31.2468 24.5262 31.4637C24.3093 31.6805 24.1875 31.9746 24.1875 32.2812Z" fill="black"/>
<path d="M28.8125 29.9688C29.1192 29.9688 29.4133 29.8469 29.6301 29.6301C29.8469 29.4133 29.9688 29.1192 29.9688 28.8125V26.5C29.9688 26.1933 29.8469 25.8992 29.6301 25.6824C29.4133 25.4656 29.1192 25.3438 28.8125 25.3438C28.5058 25.3438 28.2117 25.4656 27.9949 25.6824C27.7781 25.8992 27.6562 26.1933 27.6562 26.5V28.8125C27.6562 29.1192 27.7781 29.4133 27.9949 29.6301C28.2117 29.8469 28.5058 29.9688 28.8125 29.9688Z" fill="black"/>
<path d="M24.1875 25.3438C24.4942 25.3438 24.7883 25.2219 25.0051 25.0051C25.2219 24.7883 25.3438 24.4942 25.3438 24.1875V21.875C25.3438 21.5683 25.2219 21.2742 25.0051 21.0574C24.7883 20.8406 24.4942 20.7188 24.1875 20.7188C23.8808 20.7188 23.5867 20.8406 23.3699 21.0574C23.1531 21.2742 23.0312 21.5683 23.0312 21.875V24.1875C23.0312 24.4942 23.1531 24.7883 23.3699 25.0051C23.5867 25.2219 23.8808 25.3438 24.1875 25.3438Z" fill="black"/>
<path d="M64.6562 39.2188C64.9629 39.2188 65.257 39.0969 65.4738 38.8801C65.6907 38.6633 65.8125 38.3692 65.8125 38.0625V35.75C65.8125 35.4433 65.6907 35.1492 65.4738 34.9324C65.257 34.7156 64.9629 34.5938 64.6562 34.5938C64.3496 34.5938 64.0555 34.7156 63.8387 34.9324C63.6218 35.1492 63.5 35.4433 63.5 35.75V38.0625C63.5 38.3692 63.6218 38.6633 63.8387 38.8801C64.0555 39.0969 64.3496 39.2188 64.6562 39.2188Z" fill="black"/>
<path d="M61.1875 31.125C61.4942 31.125 61.7883 31.0032 62.0051 30.7863C62.2219 30.5695 62.3438 30.2754 62.3438 29.9688V27.6562C62.3438 27.3496 62.2219 27.0555 62.0051 26.8387C61.7883 26.6218 61.4942 26.5 61.1875 26.5C60.8808 26.5 60.5867 26.6218 60.3699 26.8387C60.1531 27.0555 60.0312 27.3496 60.0312 27.6562V29.9688C60.0312 30.2754 60.1531 30.5695 60.3699 30.7863C60.5867 31.0032 60.8808 31.125 61.1875 31.125Z" fill="black"/>
<path d="M65.8125 27.6562C66.1192 27.6562 66.4133 27.5344 66.6301 27.3176C66.8469 27.1008 66.9688 26.8067 66.9688 26.5V23.0312C66.9688 22.7246 66.8469 22.4305 66.6301 22.2137C66.4133 21.9968 66.1192 21.875 65.8125 21.875C65.5058 21.875 65.2117 21.9968 64.9949 22.2137C64.7781 22.4305 64.6562 22.7246 64.6562 23.0312V26.5C64.6562 26.8067 64.7781 27.1008 64.9949 27.3176C65.2117 27.5344 65.5058 27.6562 65.8125 27.6562Z" fill="black"/>
</svg>
