<svg width="90" height="90" viewBox="0 0 90 90" fill="none" xmlns="http://www.w3.org/2000/svg">
<circle cx="45" cy="45" r="45" fill="#8037FF" fill-opacity="0.15"/>
<g clip-path="url(#clip0)">
<path d="M82 39.4509C82 36.7263 79.7913 34.5176 77.0667 34.5176H70.9C70.2188 34.5176 69.6667 35.0698 69.6667 35.7509C69.6667 36.432 70.2188 36.9841 70.9 36.9841H77.0667C78.4291 36.9841 79.5334 38.0885 79.5334 39.4509V69.0509C79.5334 70.4132 78.4291 71.5176 77.0667 71.5176H12.9333C11.5709 71.5176 10.4666 70.4132 10.4666 69.0509V39.4509C10.4666 38.0885 11.5709 36.9841 12.9333 36.9841H19.7043C20.3855 36.9841 20.9376 36.4319 20.9376 35.7509C20.9376 35.0697 20.3853 34.5176 19.7043 34.5176H12.9333C10.2087 34.5174 8 36.7262 8 39.4509V69.0509C8.00838 71.2936 9.52842 73.2483 11.7 73.8091V76.4509C11.7 78.4942 13.3566 80.1509 15.4 80.1509H20.3333C22.3767 80.1509 24.0333 78.4942 24.0333 76.4509V73.9841H65.9666V76.4509C65.9666 78.4942 67.6232 80.1509 69.6666 80.1509H74.6C76.6434 80.1509 78.3 78.4942 78.3 76.4509V73.8091C80.4716 73.2485 81.9916 71.2936 82 69.0509V39.4509ZM21.5667 76.4509C21.5667 77.132 21.0145 77.6841 20.3334 77.6841H15.4C14.7188 77.6841 14.1667 77.132 14.1667 76.4509V73.9841H21.5667V76.4509ZM75.8333 76.4509C75.8333 77.132 75.2812 77.6841 74.6 77.6841H69.6667C68.9855 77.6841 68.4334 77.132 68.4334 76.4509V73.9841H75.8334V76.4509H75.8333Z" fill="black"/>
<path d="M35.75 34.5171C35.0688 34.5171 34.5167 35.0693 34.5167 35.7504C34.5167 36.4316 35.069 36.9837 35.75 36.9837H53.6333C54.3145 36.9837 54.8666 36.4314 54.8666 35.7504C54.8666 35.0692 54.3143 34.5171 53.6333 34.5171H35.75Z" fill="black"/>
<path d="M14.1667 54.2508C14.1667 61.7434 20.2408 67.8175 27.7335 67.8175C35.2261 67.8175 41.3002 61.7434 41.3002 54.2508C41.3002 46.7581 35.2261 40.6841 27.7335 40.6841C20.2444 40.6929 14.1756 46.7618 14.1667 54.2508V54.2508ZM38.8333 54.2508C38.8322 54.663 38.8079 55.0748 38.7606 55.4841H28.9667V53.0174H38.7606C38.8079 53.4268 38.8322 53.8386 38.8333 54.2508ZM16.6333 54.2508C16.6345 53.8386 16.6588 53.4268 16.706 53.0175H26.5V55.4842H16.7062C16.6589 55.0746 16.6345 54.6628 16.6333 54.2508V54.2508ZM26.5 48.0841V50.5508H17.2808C17.5868 49.6801 18.0012 48.8514 18.5141 48.0841H26.5ZM20.7712 45.6174C22.4127 44.288 24.4009 43.4572 26.5 43.2235V45.6174H20.7712ZM26.5 57.9508V60.4175H18.5105C17.9975 59.6503 17.5832 58.8216 17.2772 57.9508H26.5ZM26.5 62.8841V65.2779C24.4007 65.0442 22.4125 64.2135 20.7712 62.8841H26.5ZM28.9667 62.8841H34.6955C33.0541 64.2135 31.0659 65.0442 28.9667 65.2779V62.8841ZM28.9667 60.4174V57.9506H38.186C37.88 58.8213 37.4656 59.65 36.9527 60.4174H28.9667ZM28.9667 50.5508V48.0841H36.9563C37.4692 48.8512 37.8836 49.68 38.1896 50.5508H28.9667ZM28.9667 45.6174V43.2235C31.0661 43.4572 33.0542 44.288 34.6955 45.6174H28.9667Z" fill="black"/>
<path d="M62.2668 67.8175C69.7594 67.8175 75.8335 61.7434 75.8335 54.2508C75.8335 46.7582 69.7594 40.6841 62.2668 40.6841C54.7741 40.6841 48.7001 46.7581 48.7001 54.2509C48.7089 61.7398 54.7778 67.8087 62.2668 67.8175V67.8175ZM51.1668 54.2509C51.1679 53.8387 51.1922 53.427 51.2395 53.0177H61.0334V55.4844H51.2395C51.1922 55.0748 51.1679 54.663 51.1668 54.2509ZM73.3668 54.2509C73.3656 54.6631 73.3414 55.0749 73.2941 55.4842H63.5001V53.0175H73.2939C73.3412 53.427 73.3656 53.8387 73.3668 54.2509ZM63.5001 62.8842H69.2289C67.5874 64.2136 65.5992 65.0444 63.5001 65.2781V62.8842ZM63.5001 60.4175V57.9508H72.7193C72.4133 58.8214 71.9989 59.6502 71.486 60.4175H63.5001ZM63.5001 50.5509V48.0842H71.4896C72.0026 48.8514 72.4169 49.6801 72.7229 50.5509H63.5001ZM63.5001 45.6175V43.2236C65.5994 43.4573 67.5876 44.2881 69.2289 45.6175H63.5001ZM61.0334 45.6175H55.3046C56.946 44.2881 58.9342 43.4573 61.0334 43.2236V45.6175ZM61.0334 48.0842V50.5509H51.8141C52.1201 49.6803 52.5345 48.8515 53.0474 48.0842H61.0334ZM61.0334 57.9509V60.4176H53.0438C52.5309 59.6505 52.1165 58.8217 51.8105 57.9509H61.0334ZM61.0334 62.8842V65.2781C58.934 65.0444 56.9459 64.2136 55.3046 62.8842H61.0334Z" fill="black"/>
<path d="M30.1999 9.85059H25.2666C23.9043 9.85059 22.7999 10.9549 22.7999 12.3173V25.884H21.5666C20.6162 25.8827 19.7496 26.4276 19.3388 27.2847C18.9281 28.1417 19.0463 29.1585 19.6426 29.8985L25.7846 37.2664C26.2476 37.8612 26.9571 38.2117 27.7108 38.218C28.4645 38.2242 29.1797 37.8856 29.6524 37.2985L35.8437 29.8664C36.4226 29.1232 36.5277 28.1153 36.1144 27.2688C35.7012 26.4222 34.842 25.8849 33.8999 25.884H32.6666V12.3172C32.6666 10.9549 31.5623 9.85059 30.1999 9.85059V9.85059ZM33.9258 28.3185L27.7085 35.7185L21.5555 28.3506H24.0332C24.7144 28.3506 25.2665 27.7983 25.2665 27.1173V12.3173H30.1999V27.1173C30.1999 27.7985 30.7522 28.3506 31.4332 28.3506L33.9258 28.3185Z" fill="black"/>
<path d="M70.6533 20.8C71.0737 19.9401 70.9588 18.9147 70.3586 18.1692L64.2166 10.8013C63.7536 10.2065 63.0441 9.85605 62.2904 9.84969C61.5367 9.84348 60.8215 10.1821 60.3488 10.7692L54.15 18.2024C53.5711 18.9465 53.4671 19.9553 53.8817 20.802C54.2964 21.6485 55.1572 22.1849 56.0999 22.1837H57.3331V35.7504C57.3331 37.1128 58.4375 38.2171 59.7998 38.2171H64.7331C66.0955 38.2171 67.1998 37.1128 67.1998 35.7504V22.1838H68.4331C69.3784 22.1895 70.2422 21.651 70.6533 20.8ZM65.9667 19.7171C65.2855 19.7171 64.7334 20.2694 64.7334 20.9504V35.7504H59.8V20.9504C59.8 20.2692 59.2477 19.7171 58.5667 19.7171H56.1L62.2913 12.3492L68.4333 19.7171H65.9667Z" fill="black"/>
<path d="M47.4667 41.917H42.5335C41.8523 41.917 41.3002 42.4692 41.3002 43.1503C41.3002 43.8313 41.8524 44.3836 42.5335 44.3836H47.4667C48.1479 44.3836 48.7 43.8315 48.7 43.1503C48.7 42.4691 48.1479 41.917 47.4667 41.917Z" fill="black"/>
</g>
<defs>
<clipPath id="clip0">
<rect width="74" height="74" fill="white" transform="translate(8 8)"/>
</clipPath>
</defs>
</svg>
